<?xml version="1.0" standalone="no"?>
<!DOCTYPE svg PUBLIC "-//W3C//DTD SVG 20010904//EN"
 "http://www.w3.org/TR/2001/REC-SVG-20010904/DTD/svg10.dtd">
<svg version="1.0" xmlns="http://www.w3.org/2000/svg"
 width="1080.000000pt" height="1080.000000pt" viewBox="0 0 1080.000000 1080.000000"
 preserveAspectRatio="xMidYMid meet">
<metadata>
Created by potrace 1.11, written by Peter Selinger 2001-2013
</metadata>
<g transform="translate(0.000000,1080.000000) scale(0.100000,-0.100000)"
fill="#000000" stroke="none">
<path d="M5225 8670 c-22 -5 -62 -9 -88 -9 -27 -1 -67 -5 -90 -10 -23 -5 -69
-15 -102 -21 -33 -7 -107 -28 -165 -46 -58 -19 -134 -43 -170 -55 -223 -70
-411 -228 -456 -381 -30 -105 -37 -123 -47 -130 -6 -3 -34 -4 -63 -1 -66 7
-120 -16 -186 -80 -55 -54 -87 -106 -123 -202 -15 -38 -31 -79 -35 -90 -16
-38 -31 -150 -36 -275 -6 -146 11 -257 75 -488 19 -69 28 -135 52 -402 5 -63
21 -154 34 -202 14 -48 25 -97 25 -109 0 -12 14 -51 31 -86 30 -61 31 -66 24
-150 l-8 -87 -21 38 c-33 61 -97 138 -117 143 -11 3 -19 10 -19 16 0 6 -7 5
-15 -4 -9 -8 -18 -39 -22 -67 -5 -48 -4 -52 16 -52 11 0 21 -4 21 -10 0 -5 7
-10 16 -10 24 0 73 -60 85 -105 6 -22 15 -50 20 -63 5 -13 9 -43 9 -67 0 -24
4 -54 9 -67 5 -13 17 -59 27 -103 9 -44 24 -85 33 -92 20 -15 76 -16 103 -2
11 6 63 10 115 10 l95 -1 -30 27 c-16 16 -47 42 -68 58 -50 40 -74 66 -74 82
0 7 -4 13 -10 13 -5 0 -10 5 -10 11 0 6 -6 25 -14 42 -20 45 -25 73 -48 252
-24 197 -30 219 -81 274 l-40 44 7 85 c3 47 11 91 17 99 6 7 26 13 43 13 18 0
51 9 74 20 22 11 55 20 72 20 20 0 30 5 30 15 0 8 5 15 10 15 11 0 10 31 -2
40 -3 3 -8 19 -11 35 -3 17 -8 40 -11 53 -16 73 3 351 25 376 5 6 9 20 9 33 0
13 4 31 10 41 5 9 21 44 36 77 24 53 129 175 150 175 4 0 15 6 23 14 29 24
125 69 176 82 48 12 305 10 505 -5 102 -8 253 -16 335 -19 156 -4 389 12 439
31 46 17 364 15 404 -3 17 -8 32 -18 32 -22 0 -5 6 -8 13 -8 15 0 121 -52 125
-62 2 -5 12 -8 23 -8 10 0 19 -4 19 -10 0 -5 8 -10 18 -10 10 0 28 -9 40 -20
12 -11 24 -20 28 -20 4 0 25 -15 48 -34 57 -47 110 -156 130 -271 18 -104 31
-206 27 -220 -2 -5 -5 -32 -6 -58 -2 -26 -7 -58 -11 -70 -4 -12 -7 -30 -5 -41
1 -10 -3 -31 -9 -47 -15 -36 4 -59 49 -59 17 0 31 -4 31 -10 0 -5 11 -10 24
-10 14 0 28 -4 31 -10 3 -5 21 -10 39 -10 54 0 66 -23 66 -126 l0 -89 -43 -41
c-42 -40 -43 -42 -55 -140 -7 -54 -12 -112 -12 -129 0 -45 -32 -205 -42 -205
-4 0 -8 -11 -8 -24 0 -26 -30 -86 -42 -86 -5 0 -8 -4 -8 -10 0 -5 -25 -35 -55
-66 -30 -32 -55 -63 -55 -70 0 -8 23 -14 73 -18 39 -3 94 -8 121 -12 62 -8 96
8 96 47 0 16 6 48 14 71 15 44 19 66 37 178 5 36 14 82 20 104 10 39 66 106
88 106 6 0 11 5 11 10 0 6 9 10 20 10 17 0 20 7 20 53 0 68 -9 83 -41 65 -12
-7 -33 -22 -44 -33 -26 -25 -95 -131 -96 -148 0 -6 -4 -3 -9 8 -21 49 -4 215
22 215 4 0 8 14 8 32 0 18 15 80 34 138 36 110 56 258 56 416 0 79 14 145 64
299 15 44 29 98 32 120 3 22 10 69 16 103 11 64 0 194 -23 285 -13 48 -6 70
27 88 42 22 112 123 136 196 23 72 32 213 13 219 -5 2 -22 -23 -37 -56 -36
-80 -71 -102 -153 -98 -95 6 -166 48 -250 149 -17 20 -48 58 -70 85 -111 135
-199 221 -309 302 -39 29 -78 58 -87 65 -30 23 -54 37 -123 72 -38 19 -74 39
-80 44 -18 15 -212 78 -296 96 -41 9 -113 20 -160 25 -133 13 -471 19 -515 10z"/>
<path d="M4480 6682 c0 -4 -13 -13 -30 -20 -38 -17 -135 -112 -144 -140 -4
-12 -12 -22 -18 -22 -7 0 -6 -5 2 -14 9 -12 58 -16 243 -20 262 -6 387 -14
402 -26 9 -7 83 -14 123 -11 23 2 12 43 -22 77 -19 19 -39 34 -45 34 -6 0 -11
4 -11 8 0 5 -12 15 -27 23 -16 7 -44 23 -63 34 -19 11 -53 26 -75 33 -22 8
-49 17 -60 21 -67 27 -275 45 -275 23z"/>
<path d="M6125 6678 c-22 -6 -48 -14 -57 -19 -10 -5 -27 -9 -37 -9 -11 0 -23
-4 -26 -10 -3 -5 -13 -10 -21 -10 -23 0 -151 -77 -195 -117 -39 -35 -53 -82
-26 -84 36 -3 103 4 112 11 14 12 144 20 412 26 248 5 259 8 225 54 -38 51
-116 130 -128 130 -8 0 -14 4 -14 8 0 28 -158 41 -245 20z"/>
<path d="M4560 6282 c-25 -10 -49 -20 -55 -23 -5 -3 -30 -11 -55 -18 -56 -16
-161 -62 -178 -78 -7 -7 -19 -16 -26 -20 -7 -5 -30 -34 -51 -65 -30 -46 -37
-67 -38 -108 -1 -66 13 -81 47 -47 14 14 26 30 26 35 0 5 11 14 24 20 25 11
46 0 46 -25 0 -29 16 -9 44 52 36 81 104 155 179 195 48 25 68 30 125 29 62
-1 64 -2 29 -10 -184 -43 -258 -246 -142 -391 34 -42 85 -62 85 -33 0 12 16
15 80 15 47 0 80 4 80 10 0 6 6 10 13 10 6 0 30 14 51 30 31 24 42 27 54 18
37 -31 66 108 40 194 -6 22 -29 57 -50 79 -32 33 -35 39 -18 39 11 0 20 -4 20
-9 0 -5 10 -13 22 -17 26 -8 105 -88 113 -115 4 -11 11 -19 16 -19 5 0 9 -9 9
-20 0 -11 5 -20 10 -20 6 0 10 -7 10 -15 0 -8 7 -15 15 -15 10 0 15 10 15 28
0 15 10 54 21 87 16 50 18 64 7 85 -17 36 -49 70 -65 70 -7 0 -13 4 -13 9 0 5
-17 11 -37 14 -21 3 -60 10 -88 16 -176 36 -291 40 -365 13z m217 -58 c-3 -3
-12 -4 -19 -1 -8 3 -5 6 6 6 11 1 17 -2 13 -5z m-109 -129 c7 -14 12 -30 12
-34 0 -16 -38 -51 -55 -51 -20 0 -55 36 -55 57 0 53 77 75 98 28z"/>
<path d="M6015 6294 c-11 -3 -47 -9 -80 -15 -74 -13 -134 -28 -157 -40 -10 -5
-23 -9 -29 -9 -21 0 -69 -64 -69 -93 0 -40 42 -177 55 -177 5 0 18 20 28 45
11 25 23 45 28 45 5 0 9 5 9 11 0 23 125 129 152 129 13 0 7 -10 -21 -38 -52
-51 -74 -118 -65 -191 8 -68 23 -100 70 -146 36 -37 64 -45 64 -20 0 12 16 15
80 15 47 0 80 4 80 10 0 6 6 10 13 10 7 0 30 14 51 32 l39 32 18 -23 c15 -18
19 -19 19 -7 0 9 5 16 10 16 6 0 10 9 10 19 0 11 5 23 10 26 14 9 12 83 -3
125 -35 97 -89 147 -184 169 -34 8 -31 9 35 10 42 1 72 -3 72 -9 0 -5 7 -10
15 -10 34 0 165 -103 165 -130 0 -5 4 -10 9 -10 4 0 21 -29 37 -65 30 -68 44
-81 44 -41 0 48 47 41 90 -12 20 -25 26 -27 37 -17 30 30 0 141 -51 190 -46
45 -171 105 -218 105 -10 0 -18 5 -18 10 0 6 -7 10 -15 10 -8 0 -23 4 -33 10
-60 34 -212 51 -297 34z m38 -71 c-7 -2 -19 -2 -25 0 -7 3 -2 5 12 5 14 0 19
-2 13 -5z m-9 -119 c11 -30 6 -67 -11 -80 -21 -16 -53 -18 -53 -4 0 6 -7 10
-15 10 -19 0 -21 60 -3 78 18 18 75 15 82 -4z"/>
<path d="M5348 6119 c-16 -11 -28 -27 -28 -35 0 -8 -4 -14 -10 -14 -5 0 -10
-9 -10 -20 0 -11 -3 -20 -7 -20 -5 0 -17 -29 -28 -65 -10 -36 -23 -65 -27 -65
-4 0 -8 -9 -8 -20 0 -10 -6 -34 -14 -52 -7 -18 -24 -60 -36 -93 -28 -77 -70
-161 -92 -185 -10 -11 -18 -23 -18 -29 0 -9 -34 -44 -89 -90 l-24 -21 54 0
c50 1 56 3 79 36 14 19 31 41 38 49 6 7 12 17 12 22 0 24 57 113 73 113 14 0
17 9 17 55 0 30 4 55 9 55 5 0 11 12 14 28 7 40 47 142 63 161 7 9 19 24 26
34 15 20 108 38 131 25 27 -14 77 -107 77 -141 0 -21 7 -36 20 -45 11 -7 20
-19 20 -26 0 -8 6 -27 14 -43 44 -90 56 -116 56 -129 0 -8 3 -14 8 -14 4 0 15
-20 25 -45 11 -25 23 -45 28 -45 5 0 9 -6 9 -13 0 -7 13 -28 28 -45 23 -26 36
-32 68 -32 l39 1 -24 17 c-43 31 -110 103 -123 133 -7 16 -16 29 -19 29 -3 0
-14 20 -25 45 -10 25 -22 45 -26 45 -4 0 -8 9 -8 19 0 11 -9 36 -19 58 -25 50
-51 130 -51 160 0 13 -4 23 -10 23 -5 0 -10 9 -10 19 0 11 -4 23 -10 26 -5 3
-10 13 -10 22 0 18 -30 83 -45 99 -37 38 -96 44 -137 13z"/>
<path d="M5180 5425 c0 -8 2 -15 4 -15 2 0 6 7 10 15 3 8 1 15 -4 15 -6 0 -10
-7 -10 -15z"/>
<path d="M6404 5196 c-3 -8 -4 -88 -2 -178 3 -133 6 -169 21 -196 10 -18 22
-30 27 -27 5 3 12 0 16 -6 4 -8 3 -9 -4 -5 -19 11 -14 -9 6 -27 22 -20 36 -22
26 -4 -4 7 -3 9 2 4 5 -5 9 -14 9 -20 0 -21 95 -48 145 -41 91 12 171 77 195
158 18 58 21 341 5 351 -5 3 -10 3 -10 -2 0 -4 -90 -7 -201 -5 -153 2 -205 0
-217 -10 -13 -11 -15 -10 -9 5 3 9 4 17 1 17 -2 0 -7 -7 -10 -14z m426 -158
c-1 -98 -5 -156 -15 -183 -18 -49 -18 -48 -3 -39 15 9 2 -14 -26 -44 -25 -28
-63 -51 -51 -31 6 9 3 10 -11 5 -76 -31 -127 -30 -194 4 -19 10 -38 18 -42 19
-5 1 -7 2 -6 4 5 7 -24 46 -34 44 -6 -1 -13 5 -15 13 -4 13 -3 13 7 0 9 -12
10 -10 4 10 -4 14 -9 96 -11 183 l-4 157 200 0 201 0 0 -142z m7 -180 c-3 -8
-6 -5 -6 6 -1 11 2 17 5 13 3 -3 4 -12 1 -19z"/>
<path d="M6534 5104 c-4 -16 -11 -23 -21 -20 -18 7 -29 -20 -14 -38 6 -7 8
-16 4 -19 -3 -4 -1 -7 5 -7 5 0 13 6 15 13 3 7 6 5 6 -5 1 -10 -3 -18 -9 -18
-5 0 -10 -4 -10 -9 0 -5 15 -9 33 -8 28 2 32 -1 29 -20 -2 -12 2 -24 8 -28 6
-3 8 -11 5 -16 -4 -5 -2 -9 4 -9 5 0 12 6 14 13 4 9 6 9 6 -1 1 -7 -7 -22 -18
-33 -19 -20 -19 -20 -25 5 -8 33 -24 33 -32 2 -4 -16 -11 -23 -20 -19 -16 6
-32 -26 -18 -36 5 -3 9 -12 10 -18 1 -7 2 -17 3 -22 2 -12 40 -21 46 -10 3 4
12 6 19 3 14 -6 30 22 20 37 -3 5 0 9 6 9 8 0 10 9 6 25 -6 22 -4 24 24 20 16
-2 32 1 35 6 4 5 1 9 -4 9 -6 0 -11 4 -11 10 0 5 7 7 15 3 9 -3 15 -2 14 3 -1
5 1 17 6 28 10 23 -13 40 -34 23 -12 -9 -13 -9 -7 1 9 15 -1 52 -14 52 -6 0
-12 -11 -16 -25 -6 -24 -32 -30 -26 -6 1 6 -2 11 -8 11 -5 0 -10 4 -10 10 0 5
8 7 18 3 9 -3 14 -3 10 2 -4 4 -3 14 3 21 15 18 4 45 -14 38 -10 -3 -17 4 -21
20 -3 14 -11 26 -16 26 -5 0 -13 -12 -16 -26z m-4 -274 c0 -5 -5 -10 -11 -10
-5 0 -7 5 -4 10 3 6 8 10 11 10 2 0 4 -4 4 -10z m55 0 c3 -5 1 -10 -4 -10 -6
0 -11 5 -11 10 0 6 2 10 4 10 3 0 8 -4 11 -10z"/>
<path d="M6695 5107 c-5 -17 -12 -26 -21 -23 -21 8 -37 -19 -19 -34 8 -7 12
-16 9 -21 -3 -5 -1 -9 5 -9 5 0 12 6 14 13 3 7 6 5 6 -5 1 -10 -3 -18 -9 -18
-5 0 -10 -4 -10 -8 0 -10 66 -10 76 1 4 4 2 7 -4 7 -7 0 -12 4 -12 10 0 5 7 7
15 3 9 -3 15 -2 14 3 -1 5 1 17 6 28 10 22 -13 40 -32 24 -10 -8 -12 -7 -8 3
3 8 -1 23 -9 34 -14 19 -15 19 -21 -8z"/>
<path d="M6697 4923 c-4 -3 -7 -15 -7 -25 0 -11 -5 -16 -10 -13 -6 4 -17 2
-24 -4 -11 -9 -11 -17 2 -46 16 -36 31 -44 70 -37 18 4 20 7 11 19 -7 8 -8 13
-3 11 5 -2 11 2 12 7 2 6 8 15 14 22 12 15 0 36 -17 29 -8 -3 -16 5 -19 20 -6
24 -17 30 -29 17z"/>
<path d="M6765 4780 c-16 -17 -24 -30 -19 -30 13 0 59 48 52 55 -2 3 -17 -9
-33 -25z"/>
<path d="M4457 5132 c-15 -16 -15 -20 -1 -40 8 -12 21 -22 29 -22 16 0 38 -34
28 -44 -3 -3 -1 -6 6 -6 30 0 35 78 5 94 -10 6 -23 17 -27 24 -11 17 -21 15
-40 -6z"/>
<path d="M3783 5106 c15 -14 33 -26 39 -26 13 0 14 0 -32 29 l-35 23 28 -26z"/>
<path d="M3860 5097 c37 -26 53 -28 28 -4 -8 8 -25 18 -38 22 -20 5 -18 2 10
-18z"/>
<path d="M4090 5111 c-20 -6 -22 -8 -8 -13 9 -4 22 -1 28 8 7 8 11 14 9 13 -2
-1 -15 -4 -29 -8z"/>
<path d="M3970 5080 c0 -6 7 -10 15 -10 8 0 15 2 15 4 0 2 -7 6 -15 10 -8 3
-15 1 -15 -4z"/>
<path d="M4027 5052 c10 -16 28 -41 40 -56 21 -26 23 -27 47 -10 29 18 30 22
16 44 -6 10 -10 11 -10 3 0 -21 -16 -15 -50 17 -43 40 -69 41 -43 2z"/>
<path d="M3841 5054 c-18 -13 -28 -14 -48 -5 -34 15 -42 6 -15 -17 12 -11 19
-22 15 -25 -3 -4 4 -5 16 -2 12 2 28 11 37 19 8 9 19 16 23 16 4 0 8 7 8 15 0
19 -7 19 -36 -1z"/>
<path d="M3920 5018 c0 -15 43 -20 57 -6 12 13 9 14 -22 14 -19 -1 -35 -4 -35
-8z"/>
<path d="M4550 5011 c0 -6 -6 -8 -12 -6 -17 6 -45 -12 -35 -22 5 -4 12 -1 16
6 6 9 11 10 15 2 5 -7 -4 -13 -22 -17 -27 -5 -30 -10 -30 -43 0 -49 13 -63 44
-49 13 6 24 15 24 21 0 5 7 7 15 3 8 -3 14 -2 13 2 -1 4 4 19 12 34 7 15 10
33 7 42 -7 18 -47 41 -47 27z m-40 -121 c0 -5 -2 -10 -4 -10 -3 0 -8 5 -11 10
-3 6 -1 10 4 10 6 0 11 -4 11 -10z"/>
<path d="M4170 4976 c0 -2 7 -9 15 -16 9 -7 15 -8 15 -2 0 5 -7 12 -15 16 -8
3 -15 4 -15 2z"/>
<path d="M3687 4963 c-4 -3 -7 -11 -7 -17 0 -6 5 -5 12 2 6 6 9 14 7 17 -3 3
-9 2 -12 -2z"/>
<path d="M3855 4960 c-3 -5 3 -10 15 -10 12 0 18 5 15 10 -3 6 -10 10 -15 10
-5 0 -12 -4 -15 -10z"/>
<path d="M4020 4960 c0 -5 7 -10 16 -10 8 0 12 5 9 10 -3 6 -10 10 -16 10 -5
0 -9 -4 -9 -10z"/>
<path d="M3666 4915 c-9 -26 -7 -32 5 -12 6 10 9 21 6 23 -2 3 -7 -2 -11 -11z"/>
<path d="M4004 4899 c6 -26 5 -26 -49 -26 -36 0 -56 4 -59 13 -7 19 -36 18
-36 -1 0 -8 -9 -15 -19 -15 -14 0 -21 -8 -23 -26 l-3 -27 -28 28 c-15 16 -30
25 -34 22 -3 -4 -1 -7 7 -7 10 0 10 -3 0 -15 -21 -25 -40 -17 -57 23 -16 37
-16 37 -25 12 -16 -42 -3 -108 27 -140 17 -18 24 -33 20 -42 -6 -10 -5 -10 5
-1 9 9 7 18 -11 42 -28 39 -17 67 25 64 15 -1 24 2 21 6 -3 5 2 11 10 15 17 6
30 -10 15 -19 -6 -4 -8 -10 -5 -15 3 -5 0 -14 -7 -22 -7 -7 -14 -19 -15 -26
-4 -18 22 -15 38 5 12 14 15 10 19 -38 3 -30 8 -52 11 -49 3 3 14 -2 24 -10
11 -8 16 -10 12 -3 -8 13 1 43 14 43 5 0 9 -12 9 -27 l0 -27 22 21 c21 21 21
23 4 41 -9 11 -16 26 -14 33 2 9 -6 13 -24 13 -15 -1 -25 3 -22 8 3 5 -2 18
-11 28 -21 23 -11 47 12 29 12 -11 14 -10 13 2 -4 25 0 39 10 39 6 0 10 -12
10 -26 0 -22 3 -24 14 -15 23 19 31 -7 10 -30 -17 -19 -17 -21 4 -42 l22 -21
0 27 c0 15 5 27 10 27 11 0 14 -13 10 -45 -2 -17 1 -16 19 7 25 32 26 37 4 53
-18 13 -9 39 12 31 7 -2 15 4 18 16 4 12 10 17 17 13 7 -4 9 -18 5 -34 -6 -25
-6 -25 9 -6 12 16 17 18 27 7 11 -10 7 -18 -20 -42 -18 -17 -38 -30 -46 -30
-8 0 -11 -7 -8 -20 3 -12 -1 -22 -10 -26 -9 -3 -14 -11 -11 -18 4 -9 -4 -13
-22 -12 -22 1 -28 -4 -29 -22 -1 -13 -8 -27 -15 -32 -7 -4 -9 -13 -5 -20 5 -9
4 -11 -3 -6 -7 4 -12 3 -12 -3 0 -16 34 -31 50 -21 8 5 19 5 25 0 6 -5 21 -3
35 5 18 11 21 14 8 15 -10 0 -15 5 -12 13 3 8 -2 20 -11 27 -21 18 -19 33 4
27 15 -3 21 1 23 17 5 34 23 18 20 -17 -3 -29 -2 -30 11 -13 8 11 19 16 24 13
13 -8 28 77 17 94 -4 8 1 9 17 4 26 -8 25 -8 53 -6 19 1 19 2 -1 24 -11 12
-23 30 -26 39 -5 15 0 18 33 16 25 -1 40 -6 40 -14 0 -7 6 -15 13 -17 9 -4 9
-8 -2 -15 -9 -6 -11 -17 -7 -28 7 -18 8 -18 18 -1 33 60 27 108 -20 150 -20
18 -20 18 -27 -1 -3 -11 -20 -26 -38 -33 -18 -7 -35 -14 -39 -17 -5 -2 -8 3
-8 12 0 11 -9 16 -30 16 -22 0 -34 7 -45 28 l-16 27 5 -26z m51 -149 c3 -5 1
-10 -4 -10 -6 0 -11 5 -11 10 0 6 2 10 4 10 3 0 8 -4 11 -10z"/>
<path d="M5824 4886 c-34 -15 -44 -33 -44 -76 0 -31 36 -68 89 -90 24 -9 31
-18 29 -34 -4 -27 -43 -33 -69 -10 -16 15 -23 15 -46 5 l-28 -13 33 -29 c66
-59 172 -28 172 50 0 43 -24 70 -82 95 -45 18 -54 56 -15 56 13 0 28 -5 33
-10 15 -15 47 11 39 32 -4 9 -20 21 -37 27 -38 13 -36 13 -74 -3z"/>
<path d="M4570 4876 c15 -15 12 -60 -5 -82 -15 -18 -15 -18 -9 7 5 23 2 27
-25 31 -35 5 -66 -23 -58 -53 3 -11 -7 -45 -22 -77 -68 -143 -64 -205 6 -99
22 34 31 41 40 32 7 -7 9 -16 6 -19 -12 -12 16 -5 61 14 25 12 46 24 47 28 6
42 4 82 -5 82 -6 0 -3 7 6 14 19 14 14 28 -7 20 -21 -8 -11 47 11 63 25 18 7
48 -30 48 -17 1 -23 -2 -16 -9z"/>
<path d="M5670 4780 c0 -90 -3 -112 -15 -117 -9 -3 -23 2 -33 10 -13 12 -22
13 -37 5 -30 -16 -30 -16 -5 -43 32 -34 97 -35 128 -2 20 21 22 34 22 140 l0
117 -30 0 -30 0 0 -110z"/>
<path d="M4527 4868 c-3 -8 5 -14 20 -14 19 -2 22 1 12 12 -14 17 -25 18 -32
2z"/>
<path d="M5100 4815 c0 -8 5 -15 10 -15 6 0 10 7 10 15 0 8 -4 15 -10 15 -5 0
-10 -7 -10 -15z"/>
<path d="M5055 4811 c-6 -11 9 -23 19 -14 9 9 7 23 -3 23 -6 0 -12 -4 -16 -9z"/>
<path d="M5146 4811 c-4 -5 -2 -12 3 -15 5 -4 12 -2 15 3 4 5 2 12 -3 15 -5 4
-12 2 -15 -3z"/>
<path d="M5017 4784 c-3 -4 0 -16 8 -28 7 -11 19 -43 26 -69 8 -35 19 -52 35
-59 40 -18 69 2 83 59 7 26 19 58 26 69 13 21 11 34 -7 34 -4 0 -8 -10 -8 -22
-1 -13 -7 -34 -15 -48 -14 -25 -14 -24 -16 20 l-1 45 -11 -45 -12 -45 -3 48
c-2 26 -7 47 -12 47 -5 0 -10 -21 -12 -47 l-3 -48 -12 45 -11 45 -1 -45 c-2
-44 -2 -45 -16 -20 -8 14 -14 35 -15 48 0 21 -10 28 -23 16z m111 -144 c-10
-6 -25 -7 -40 -1 -20 9 -18 10 17 10 31 0 36 -2 23 -9z"/>
<path d="M4120 4713 c0 -7 3 -13 8 -13 4 0 15 -14 24 -30 9 -17 22 -30 28 -30
5 0 3 8 -6 18 -8 9 -24 28 -34 42 -11 14 -19 19 -20 13z"/>
<path d="M3765 4700 c-3 -6 1 -7 9 -4 18 7 21 14 7 14 -6 0 -13 -4 -16 -10z"/>
<path d="M4177 4689 c4 -13 8 -18 11 -10 2 7 -1 18 -6 23 -8 8 -9 4 -5 -13z"/>
<path d="M3714 4661 c2 -24 24 -23 36 1 10 21 10 21 -3 6 -17 -21 -24 -22 -30
-5 -2 8 -4 7 -3 -2z"/>
<path d="M4620 4639 c-8 -4 -41 -19 -74 -33 -44 -20 -57 -30 -52 -42 3 -8 6
-24 6 -35 0 -11 5 -16 13 -13 20 7 53 -34 39 -48 -7 -7 -12 -20 -12 -30 0 -14
8 -18 38 -17 21 1 28 3 17 6 -34 8 -38 20 -5 15 18 -3 30 0 30 7 0 7 21 -9 47
-34 26 -25 57 -45 69 -45 11 0 47 -9 79 -20 69 -24 75 -24 75 -6 0 7 -17 21
-37 31 -105 48 -117 55 -130 86 -12 30 -14 31 -31 15 -10 -9 -23 -16 -28 -16
-5 0 -1 5 9 11 9 5 17 15 17 21 0 6 -7 5 -17 -3 -17 -13 -17 -13 -1 6 15 18
15 25 3 73 -16 60 -33 83 -55 71z"/>
<path d="M3840 4616 c0 -2 8 -10 18 -17 15 -13 16 -12 3 4 -13 16 -21 21 -21
13z"/>
<path d="M4036 4594 c-5 -14 -4 -15 9 -4 17 14 19 20 6 20 -5 0 -12 -7 -15
-16z"/>
<path d="M4110 4569 c0 -5 5 -7 10 -4 6 3 10 8 10 11 0 2 -4 4 -10 4 -5 0 -10
-5 -10 -11z"/>
<path d="M4953 4570 c-12 -5 -27 -19 -33 -30 -16 -29 5 -80 32 -80 18 0 18 1
4 16 -20 19 -20 44 -2 70 12 15 18 17 33 8 25 -15 29 -65 7 -81 -17 -12 -16
-13 4 -13 45 0 56 68 16 99 -30 23 -30 23 -61 11z"/>
<path d="M4775 4515 c0 -53 1 -55 26 -55 23 0 26 3 21 25 -3 18 0 25 12 25 9
0 21 -11 26 -25 6 -17 17 -25 32 -25 17 0 20 2 9 9 -8 5 -15 27 -15 53 l-1 43
-55 3 -55 3 0 -56z m80 25 c0 -8 -8 -16 -17 -18 -13 -2 -18 3 -18 18 0 15 5
20 18 18 9 -2 17 -10 17 -18z"/>
<path d="M5058 4563 c7 -3 12 -24 12 -54 0 -40 3 -49 18 -49 14 0 17 7 13 46
-2 32 1 49 10 55 9 6 0 8 -26 8 -22 0 -34 -3 -27 -6z"/>
<path d="M5189 4561 c9 -6 12 -23 10 -55 -4 -39 -1 -46 13 -46 13 0 18 8 18
25 0 26 15 34 23 13 3 -7 5 1 5 17 0 17 -2 24 -5 18 -8 -20 -23 -15 -23 7 0
15 7 20 25 20 16 0 25 -6 25 -15 0 -8 5 -15 10 -15 6 0 10 9 10 20 0 18 -7 20
-62 20 -39 0 -58 -4 -49 -9z"/>
<path d="M5335 4545 c30 -29 31 -39 5 -65 -11 -11 -15 -20 -9 -20 6 0 19 10
29 22 l17 22 12 -22 c6 -12 21 -22 32 -22 18 0 16 6 -20 49 -28 33 -37 51 -29
54 7 3 -4 6 -24 6 l-37 1 24 -25z"/>
<path d="M5393 4549 c-2 -21 -1 -21 20 -3 12 10 24 20 26 21 2 2 -7 3 -20 3
-18 0 -25 -6 -26 -21z"/>
<path d="M3835 4530 c3 -5 11 -10 16 -10 6 0 7 5 4 10 -3 6 -11 10 -16 10 -6
0 -7 -4 -4 -10z"/>
<path d="M4390 4499 c0 -19 4 -29 8 -24 4 6 10 12 14 15 3 3 0 14 -8 24 -13
19 -14 18 -14 -15z"/>
<path d="M3860 4510 c0 -5 5 -10 10 -10 6 0 10 5 10 10 0 6 -4 10 -10 10 -5 0
-10 -4 -10 -10z"/>
<path d="M3896 4512 c-3 -5 1 -9 9 -9 8 0 12 4 9 9 -3 4 -7 8 -9 8 -2 0 -6 -4
-9 -8z"/>
<path d="M3960 4510 c0 -5 5 -10 11 -10 5 0 7 5 4 10 -3 6 -8 10 -11 10 -2 0
-4 -4 -4 -10z"/>
<path d="M3996 4512 c-2 -4 7 -9 22 -10 21 -1 24 0 12 8 -18 12 -27 12 -34 2z"/>
<path d="M5150 4486 c0 -8 -6 -17 -12 -19 -8 -3 -6 -6 5 -6 11 -1 17 6 17 19
0 11 -2 20 -5 20 -3 0 -5 -6 -5 -14z"/>
<path d="M5280 4480 c-9 -16 -8 -20 5 -20 8 0 15 9 15 20 0 11 -2 20 -5 20 -2
0 -9 -9 -15 -20z"/>
<path d="M4507 4468 c-4 -12 1 -54 10 -93 17 -74 58 -130 122 -168 38 -22 55
-3 21 25 -17 14 -20 21 -11 32 9 11 4 20 -25 44 -33 28 -36 34 -30 66 7 35 6
36 -22 36 -36 0 -67 31 -50 48 9 9 9 15 1 23 -7 7 -12 4 -16 -13z"/>
<path d="M5881 4422 c-20 -13 -43 -33 -51 -45 -15 -21 -13 -27 27 -97 30 -52
43 -68 43 -52 0 13 5 33 12 45 23 44 47 52 178 57 l125 5 -39 43 c-54 59 -65
64 -169 65 -80 2 -95 -1 -126 -21z"/>
<path d="M5006 4298 c7 -47 11 -55 20 -45 9 9 -6 87 -17 87 -5 0 -6 -18 -3
-42z"/>
<path d="M3957 4270 c-22 -25 -27 -27 -37 -14 -7 8 -15 12 -18 9 -3 -2 1 -12
8 -20 10 -12 10 -19 2 -27 -7 -7 -12 -17 -12 -22 0 -6 4 -4 9 3 8 12 13 11 30
-10 11 -13 20 -19 21 -12 0 6 -4 15 -10 18 -19 12 -10 43 20 68 17 14 26 28
21 31 -5 4 -20 -7 -34 -24z"/>
<path d="M5783 4235 c0 -38 2 -53 4 -32 2 20 2 52 0 70 -2 17 -4 1 -4 -38z"/>
<path d="M5942 4278 c-7 -7 -12 -29 -12 -50 0 -69 68 -101 124 -57 30 24 35
73 10 105 -15 18 -15 18 -4 -3 9 -20 7 -23 -26 -32 -25 -7 -44 -6 -62 2 -37
15 -36 15 -22 32 15 18 9 20 -8 3z"/>
<path d="M5010 4216 c0 -9 5 -16 10 -16 6 0 10 4 10 9 0 6 -4 13 -10 16 -5 3
-10 -1 -10 -9z"/>
<path d="M4148 4152 c-13 -15 -34 -51 -48 -80 -28 -58 -43 -69 -29 -20 12 42
12 98 0 98 -5 0 -16 -17 -24 -38 -9 -23 -32 -50 -61 -70 l-46 -33 0 65 c0 60
-11 89 -25 67 -3 -6 -8 -45 -12 -88 -6 -78 -6 -78 -50 -113 -126 -99 -160
-208 -104 -335 52 -118 140 -30 177 178 8 45 14 103 14 128 0 42 4 50 36 74
l35 27 -8 -39 c-4 -21 -8 -56 -8 -78 0 -34 3 -40 22 -43 18 -3 31 9 63 59 22
34 40 68 40 76 0 7 5 13 10 13 6 0 10 -19 10 -43 0 -72 40 -89 83 -37 29 34
37 37 37 15 0 -24 27 -72 45 -79 26 -10 70 20 109 73 56 76 83 151 54 151 -7
0 -21 -20 -31 -44 -37 -91 -126 -162 -128 -103 0 12 -1 53 -2 92 -3 92 -22 99
-68 25 -36 -58 -45 -59 -30 -3 30 108 -6 170 -61 105z m-272 -340 c-17 -82
-53 -182 -66 -182 -9 0 -30 79 -30 115 0 15 5 36 11 48 14 26 91 108 97 102 2
-2 -3 -39 -12 -83z"/>
<path d="M4780 4170 c-6 -14 -5 -88 1 -79 4 7 12 8 18 5 7 -5 11 2 11 18 0 14
-4 26 -9 26 -5 0 -12 8 -14 18 -3 9 -6 15 -7 12z"/>
<path d="M6620 4149 c-52 -21 -70 -48 -70 -106 l0 -53 90 0 c53 0 90 -4 90
-10 0 -6 -52 -10 -135 -10 -104 0 -143 -4 -166 -16 -44 -22 -69 -83 -69 -171
0 -82 10 -117 48 -155 21 -23 34 -28 74 -28 l48 0 0 50 c0 60 20 114 48 129
12 6 67 11 124 11 122 0 170 11 198 47 17 22 20 40 20 135 0 60 -5 118 -11
130 -20 36 -86 58 -179 57 -47 0 -96 -5 -110 -10z m38 -77 c4 -28 -24 -41 -44
-20 -20 20 -7 50 20 46 13 -2 22 -12 24 -26z"/>
<path d="M4775 4030 c3 -5 8 -10 11 -10 2 0 4 5 4 10 0 6 -5 10 -11 10 -5 0
-7 -4 -4 -10z"/>
<path d="M5880 4036 c0 -2 7 -7 16 -10 8 -3 12 -2 9 4 -6 10 -25 14 -25 6z"/>
<path d="M5928 4013 c7 -3 16 -2 19 1 4 3 -2 6 -13 5 -11 0 -14 -3 -6 -6z"/>
<path d="M7284 3928 c-5 -7 -12 -98 -16 -203 -13 -304 -27 -548 -33 -580 -5
-22 -21 -39 -58 -64 l-51 -34 -835 3 c-460 1 -1221 2 -1691 2 -544 0 -868 3
-890 9 -52 15 -83 32 -99 52 -7 10 -19 16 -26 13 -11 -4 -15 16 -19 87 -4 51
-11 160 -16 242 -6 83 -13 223 -16 313 -4 144 -7 162 -22 162 -39 -1 -232
-245 -232 -294 0 -7 -4 -16 -9 -22 -21 -22 -106 -306 -142 -474 -6 -30 -16
-68 -22 -83 -5 -15 -7 -30 -4 -33 16 -16 920 -24 2407 -21 1898 3 2188 5 2195
18 9 14 -12 116 -69 324 -74 275 -124 374 -271 540 -34 38 -72 58 -81 43z"/>
<path d="M4580 3825 c0 -24 5 -35 15 -35 8 0 15 8 15 18 1 16 1 16 11 0 16
-29 29 -21 29 17 0 35 -22 50 -33 23 -4 -10 -6 -10 -6 0 -1 6 -8 12 -16 12
-10 0 -15 -11 -15 -35z"/>
<path d="M4660 3850 c0 -5 5 -10 10 -10 6 0 10 -12 10 -26 0 -16 5 -24 13 -21
6 2 12 14 11 25 0 12 5 23 13 26 9 4 13 -4 13 -24 0 -32 9 -37 28 -18 9 9 15
9 24 0 20 -20 28 -14 28 21 l0 33 -75 2 c-46 2 -75 -2 -75 -8z"/>
<path d="M4820 3824 c0 -32 2 -35 27 -32 28 3 45 28 19 28 -9 0 -16 8 -16 20
0 11 -7 20 -15 20 -11 0 -15 -11 -15 -36z"/>
<path d="M5000 3826 l0 -34 105 0 c106 0 122 7 93 36 -9 9 -9 12 0 12 7 0 12
5 12 10 0 6 -42 10 -105 10 l-105 0 0 -34z m80 9 c11 -13 8 -15 -19 -15 -33 0
-42 16 -13 23 9 3 18 5 18 6 1 0 7 -6 14 -14z m75 -5 c3 -5 -1 -10 -9 -10 -8
0 -18 5 -21 10 -3 6 1 10 9 10 8 0 18 -4 21 -10z"/>
<path d="M5444 3844 c4 -11 -1 -18 -14 -21 -11 -3 -20 -11 -20 -18 0 -10 19
-13 70 -13 71 0 85 9 58 36 -9 9 -9 12 0 12 7 0 12 5 12 10 0 6 -25 10 -56 10
-47 0 -55 -3 -50 -16z m51 -14 c3 -5 1 -10 -4 -10 -6 0 -11 5 -11 10 0 6 2 10
4 10 3 0 8 -4 11 -10z"/>
<path d="M4558 3746 c-3 -13 -1 -68 3 -123 14 -171 14 -173 -21 -173 -22 0
-30 -5 -30 -17 -1 -17 -1 -17 -11 0 -6 10 -22 17 -39 17 -22 0 -30 -5 -30 -17
-1 -17 -1 -17 -11 0 -6 10 -22 17 -39 17 -30 0 -30 -1 -30 -55 0 -30 5 -55 10
-55 6 0 10 9 10 20 0 11 6 20 14 20 8 0 22 7 30 16 15 14 16 12 16 -20 0 -20
5 -36 10 -36 6 0 10 9 10 20 0 11 6 20 14 20 8 0 22 7 30 16 15 14 16 12 16
-20 0 -33 2 -36 30 -36 17 0 30 5 30 10 0 6 -9 10 -20 10 -11 0 -20 7 -20 15
0 8 9 15 20 15 11 0 20 5 20 10 0 6 -9 10 -20 10 -29 0 -25 17 5 22 21 4 25 1
25 -17 0 -19 10 -25 58 -39 73 -20 107 -20 181 0 l58 17 12 136 c6 75 14 160
17 189 l6 52 -175 0 -175 0 -4 -24z m312 -24 c0 -5 -7 -17 -15 -28 -8 -10 -15
-27 -15 -36 0 -16 -11 -18 -85 -18 -78 0 -85 -2 -85 -20 0 -18 7 -20 85 -20
l85 0 -6 -62 c-3 -35 -7 -69 -10 -75 -2 -7 1 -13 6 -13 6 0 10 -7 10 -15 0 -8
-3 -15 -7 -15 -5 0 -30 -7 -56 -15 -36 -11 -47 -11 -44 -2 2 6 12 14 23 16 10
2 28 10 39 18 19 14 18 15 -10 8 -40 -9 -73 -9 -115 2 -31 8 -35 13 -38 46 -3
34 -1 37 22 37 17 0 26 -6 26 -15 0 -18 38 -35 60 -27 19 6 40 32 40 49 0 10
-20 13 -75 13 -85 0 -82 -3 -88 82 l-3 56 119 7 c122 7 145 21 47 28 -51 3
-49 3 18 5 39 1 72 -2 72 -6z m-10 -99 c0 -27 -3 -34 -11 -26 -7 7 -9 23 -5
37 9 37 16 32 16 -11z m-13 -130 c-3 -10 -5 -2 -5 17 0 19 2 27 5 18 2 -10 2
-26 0 -35z m-87 21 c0 -17 -22 -14 -28 4 -2 7 3 12 12 12 9 0 16 -7 16 -16z
m-357 -99 c1 -5 -6 -11 -15 -13 -11 -2 -18 3 -18 13 0 17 30 18 33 0z m80 0
c1 -5 -6 -11 -15 -13 -11 -2 -18 3 -18 13 0 17 30 18 33 0z"/>
<path d="M4927 3763 c-2 -5 3 -89 12 -188 l16 -179 55 -18 c30 -9 71 -17 91
-17 32 -1 137 24 149 36 6 6 37 363 31 369 -8 7 -350 4 -354 -3z m319 -70 c-3
-21 -8 -69 -11 -108 -14 -171 -11 -163 -68 -180 -64 -19 -66 -19 -60 3 5 20
-31 42 -68 42 -19 0 -39 34 -39 66 0 23 47 18 53 -6 3 -14 14 -20 32 -20 24 0
26 3 23 33 -3 31 -4 32 -53 33 -43 1 -50 4 -53 22 -3 20 1 22 52 22 49 0 56 3
56 20 0 16 -8 19 -57 22 -51 3 -58 6 -61 26 -3 21 0 22 58 22 57 0 62 2 57 20
-5 19 0 20 70 20 l75 0 -6 -37z"/>
<path d="M5301 3743 c2 -24 2 -25 6 -6 4 22 7 23 181 26 l177 2 -182 3 -183 2
1 -27z"/>
<path d="M5652 3710 c0 -19 2 -27 5 -17 2 9 2 25 0 35 -3 9 -5 1 -5 -18z"/>
<path d="M4075 3698 l-20 -21 23 12 c12 6 22 16 22 21 0 13 -2 12 -25 -12z"/>
<path d="M4110 3705 c0 -8 4 -15 10 -15 5 0 7 7 4 15 -4 8 -8 15 -10 15 -2 0
-4 -7 -4 -15z"/>
<path d="M4141 3684 c0 -11 3 -14 6 -6 3 7 2 16 -1 19 -3 4 -6 -2 -5 -13z"/>
<path d="M4097 3666 c4 -5 -1 -7 -11 -3 -15 6 -14 3 3 -19 21 -27 20 -35 -7
-67 -14 -16 -14 -17 0 -12 9 4 19 2 23 -4 8 -14 25 -14 25 0 0 5 -6 7 -12 3
-7 -4 -2 5 11 19 28 31 33 33 25 13 -3 -8 -1 -16 3 -19 5 -3 9 3 10 13 1 11
-2 22 -8 25 -5 4 -9 11 -9 16 0 6 5 7 12 3 7 -4 8 -3 4 4 -4 7 -2 12 5 12 7 0
9 3 6 7 -4 3 -18 -4 -31 -16 -15 -14 -26 -19 -31 -12 -3 6 -1 11 6 11 8 0 7 5
-2 17 -10 11 -10 14 -1 9 6 -4 12 -3 12 3 0 5 -9 9 -19 8 -11 0 -17 -5 -14
-11z m33 -66 c0 -5 -5 -10 -11 -10 -5 0 -7 5 -4 10 3 6 8 10 11 10 2 0 4 -4 4
-10z"/>
<path d="M5313 3635 c0 -22 2 -30 4 -17 2 12 2 30 0 40 -3 9 -5 -1 -4 -23z"/>
<path d="M4017 3640 c-9 -11 -13 -20 -9 -20 4 0 15 9 25 20 9 11 13 20 9 20
-4 0 -15 -9 -25 -20z"/>
<path d="M4040 3629 c0 -6 4 -8 9 -4 5 3 12 -4 16 -15 5 -15 9 -17 19 -8 9 8
10 16 3 23 -13 14 -47 17 -47 4z"/>
<path d="M4180 3631 c0 -5 8 -12 18 -14 16 -4 16 -5 0 -6 -10 0 -18 -6 -18
-11 0 -7 6 -7 20 0 11 6 20 13 20 15 0 2 -9 9 -20 15 -12 6 -20 7 -20 1z"/>
<path d="M5643 3595 c0 -22 2 -30 4 -17 2 12 2 30 0 40 -3 9 -5 -1 -4 -23z"/>
<path d="M4008 3603 c7 -3 16 -2 19 1 4 3 -2 6 -13 5 -11 0 -14 -3 -6 -6z"/>
<path d="M4040 3600 c0 -5 5 -10 11 -10 5 0 7 5 4 10 -3 6 -8 10 -11 10 -2 0
-4 -4 -4 -10z"/>
<path d="M4027 3579 c7 -7 15 -10 18 -7 3 3 -2 9 -12 12 -14 6 -15 5 -6 -5z"/>
<path d="M5323 3525 c0 -22 2 -30 4 -17 2 12 2 30 0 40 -3 9 -5 -1 -4 -23z"/>
<path d="M4093 3526 c3 -27 23 -31 30 -6 3 11 1 20 -4 20 -5 0 -9 -8 -10 -17
0 -16 -2 -15 -10 2 -8 19 -9 19 -6 1z"/>
<path d="M5632 3480 c0 -19 2 -27 5 -17 2 9 2 25 0 35 -3 9 -5 1 -5 -18z"/>
<path d="M3640 3396 c0 -31 5 -56 10 -56 6 0 10 8 10 18 0 9 10 22 23 27 14 7
22 19 22 35 0 21 -5 26 -32 28 l-33 3 0 -55z m50 19 c0 -8 -7 -15 -15 -15 -8
0 -15 7 -15 15 0 8 7 15 15 15 8 0 15 -7 15 -15z"/>
<path d="M3716 3400 c-10 -28 -16 -54 -12 -57 3 -3 8 1 11 9 7 18 44 17 55 -2
5 -8 12 -12 15 -9 8 9 -28 102 -40 106 -6 2 -19 -19 -29 -47z m32 -19 c-15 -5
-19 4 -11 24 6 18 7 18 13 -1 4 -10 3 -21 -2 -23z"/>
<path d="M3770 3440 c0 -5 7 -10 15 -10 11 0 15 -12 15 -45 0 -25 5 -45 10
-45 6 0 10 20 10 45 0 33 4 45 15 45 8 0 15 5 15 10 0 6 -18 10 -40 10 -22 0
-40 -4 -40 -10z"/>
<path d="M3860 3395 c0 -55 0 -55 31 -55 17 0 28 4 24 10 -3 6 -15 10 -25 10
-13 0 -17 5 -14 15 4 8 12 15 20 15 22 0 16 17 -8 25 -22 7 -22 7 -3 12 36 9
41 23 7 23 l-32 0 0 -55z"/>
<path d="M3930 3395 c0 -57 16 -76 22 -27 l4 27 14 -27 c7 -16 17 -28 22 -28
13 0 10 24 -6 46 -13 17 -12 21 1 37 22 24 8 34 -17 12 -18 -16 -20 -16 -20
-2 0 10 -4 17 -10 17 -5 0 -10 -25 -10 -55z"/>
<path d="M4040 3396 c0 -31 5 -56 10 -56 6 0 10 9 10 19 0 12 9 21 26 25 20 5
25 12 22 34 -2 22 -9 28 -35 30 l-33 3 0 -55z m53 19 c1 -5 -6 -11 -15 -13
-11 -2 -18 3 -18 13 0 17 30 18 33 0z"/>
<path d="M4120 3395 c0 -30 5 -55 10 -55 6 0 10 11 10 25 0 18 5 25 20 25 15
0 20 -7 20 -25 0 -14 5 -25 10 -25 6 0 10 25 10 55 0 30 -4 55 -10 55 -5 0
-10 -9 -10 -20 0 -13 -7 -20 -20 -20 -13 0 -20 7 -20 20 0 11 -4 20 -10 20 -5
0 -10 -25 -10 -55z"/>
<path d="M4220 3395 c0 -30 5 -55 10 -55 6 0 10 25 10 55 0 30 -4 55 -10 55
-5 0 -10 -25 -10 -55z"/>
<path d="M4250 3395 c0 -54 0 -55 30 -55 17 0 30 5 30 10 0 6 -9 10 -20 10
-17 0 -20 7 -20 45 0 25 -4 45 -10 45 -5 0 -10 -25 -10 -55z"/>
<path d="M4320 3395 c0 -30 5 -55 10 -55 6 0 10 25 10 55 0 30 -4 55 -10 55
-5 0 -10 -25 -10 -55z"/>
<path d="M5330 3426 c0 -14 4 -27 8 -30 5 -3 6 8 4 25 -5 35 -12 38 -12 5z"/>
<path d="M5438 3363 c6 -2 18 -2 25 0 6 3 1 5 -13 5 -14 0 -19 -2 -12 -5z"/>
<path d="M5508 3363 c7 -3 16 -2 19 1 4 3 -2 6 -13 5 -11 0 -14 -3 -6 -6z"/>
<path d="M7018 3333 c6 -2 12 -18 12 -34 0 -38 16 -30 22 11 4 27 2 30 -21 29
-14 0 -20 -3 -13 -6z"/>
<path d="M7070 3304 c0 -21 4 -33 10 -29 6 4 8 12 4 18 -3 7 1 4 8 -5 13 -15
15 -15 26 0 7 9 10 12 7 5 -3 -6 -1 -14 5 -18 6 -4 10 8 10 29 0 40 -16 48
-30 14 l-9 -23 0 23 c-1 39 -31 27 -31 -14z"/>
<path d="M5935 3310 c-3 -5 -18 -10 -32 -10 -14 0 -41 -11 -59 -25 -18 -14
-38 -25 -44 -25 -6 0 -8 10 -4 25 5 22 3 25 -19 25 -27 0 -31 -9 -43 -97 -6
-52 -6 -53 20 -53 21 0 26 5 26 25 0 14 6 25 13 25 8 0 24 -11 37 -25 14 -15
35 -25 52 -25 35 0 35 5 -2 37 -16 13 -30 29 -30 33 0 5 15 21 34 35 30 22 37
24 54 14 16 -10 23 -10 36 0 25 21 20 51 -8 51 -14 0 -28 -4 -31 -10z"/>
<path d="M6274 3307 c-27 -15 -34 -27 -34 -63 0 -59 72 -88 104 -42 40 57 -13
136 -70 105z m54 -53 c4 -38 -20 -63 -43 -44 -15 13 -21 61 -8 74 4 4 16 6 28
4 14 -2 21 -12 23 -34z"/>
<path d="M6382 3293 c-10 -21 -4 -113 8 -113 5 0 10 17 12 38 2 25 8 37 18 37
10 0 16 -12 18 -37 4 -50 22 -49 22 1 0 22 5 42 13 44 9 4 8 8 -3 16 -10 7
-11 11 -2 11 6 0 12 5 12 10 0 19 -38 10 -43 -10 -4 -14 -10 -18 -23 -13 -11
4 -13 8 -6 11 17 5 15 22 -3 22 -8 0 -18 -8 -23 -17z"/>
<path d="M6544 3294 c4 -9 11 -36 17 -60 6 -25 16 -47 21 -50 14 -9 28 15 28
49 0 15 5 27 10 27 6 0 10 -12 10 -27 0 -36 16 -61 29 -48 7 8 41 108 41 122
0 2 -6 3 -14 3 -9 0 -18 -16 -24 -42 l-9 -43 -8 43 c-6 32 -12 42 -24 40 -9
-2 -18 -14 -19 -28 -6 -41 -19 -44 -26 -6 -4 23 -13 36 -23 36 -10 0 -13 -6
-9 -16z"/>
<path d="M6710 3245 c0 -50 3 -65 14 -65 10 0 16 13 18 37 4 52 28 56 28 4 0
-30 4 -41 15 -41 11 0 15 11 15 39 0 41 -20 67 -45 57 -10 -4 -15 1 -15 14 0
11 -7 20 -15 20 -12 0 -15 -14 -15 -65z"/>
<path d="M6820 3300 c0 -5 5 -10 10 -10 6 0 10 5 10 10 0 6 -4 10 -10 10 -5 0
-10 -4 -10 -10z"/>
<path d="M4667 3293 c-3 -5 -8 -33 -12 -64 -9 -71 2 -81 87 -77 61 3 63 4 79
38 9 19 19 52 22 73 5 34 4 37 -18 37 -19 0 -26 -7 -31 -27 -16 -74 -19 -78
-59 -81 l-37 -3 6 55 c7 52 6 56 -13 56 -11 0 -22 -3 -24 -7z"/>
<path d="M4875 3278 c-2 -13 -9 -47 -13 -75 -9 -52 -9 -53 15 -53 17 0 27 7
30 21 5 16 12 19 42 17 28 -2 35 -7 33 -20 -2 -13 4 -18 22 -18 26 0 41 25 31
53 -4 8 -2 18 4 22 15 8 14 48 -1 63 -7 7 -42 12 -85 12 -67 0 -73 -2 -78 -22z
m125 -33 c0 -11 -11 -15 -40 -15 -26 0 -40 4 -40 13 0 8 15 14 40 15 30 2 40
-1 40 -13z"/>
<path d="M5074 3268 c3 -18 8 -52 12 -75 6 -38 9 -43 34 -43 21 0 31 8 46 40
22 45 34 51 34 16 0 -39 11 -56 36 -56 19 0 30 13 59 70 19 38 35 72 35 75 0
3 -9 5 -20 5 -13 0 -27 -15 -44 -47 l-24 -48 -9 45 c-7 35 -13 46 -30 48 -17
3 -27 -7 -46 -45 l-25 -48 -7 48 c-6 42 -10 47 -32 47 -23 0 -25 -3 -19 -32z"/>
<path d="M5341 3237 c-6 -35 -11 -69 -11 -75 0 -8 26 -12 80 -12 73 0 80 2 80
20 0 18 -7 20 -56 20 -34 0 -53 4 -49 10 3 6 28 10 55 10 33 0 50 5 54 15 4
12 -5 15 -49 15 -30 0 -55 5 -55 10 0 6 27 10 60 10 53 0 60 2 60 20 0 18 -7
20 -79 20 l-79 0 -11 -63z"/>
<path d="M5532 3236 c-16 -85 -16 -86 13 -86 18 0 25 5 25 20 0 16 7 20 36 20
27 0 37 -5 41 -20 4 -13 14 -20 30 -20 22 0 25 3 21 30 -3 17 -1 33 4 36 15 9
9 71 -8 78 -9 3 -46 6 -83 6 l-68 0 -11 -64z m128 9 c0 -11 -11 -15 -40 -15
-38 0 -49 8 -33 23 3 4 21 7 40 7 23 0 33 -5 33 -15z"/>
<path d="M6868 3288 c-9 -25 4 -100 19 -105 21 -8 26 3 11 26 -11 17 -10 25 1
43 10 16 10 23 2 26 -6 2 -9 8 -5 13 3 5 -1 9 -9 9 -8 0 -17 -6 -19 -12z"/>
<path d="M3941 3277 c-15 -15 -14 -42 2 -55 6 -5 38 -9 70 -9 51 1 57 3 57 21
0 20 2 20 20 -4 18 -23 20 -23 20 -5 1 18 1 19 11 3 5 -10 20 -18 32 -18 21 1
21 1 4 14 -14 11 -15 15 -5 20 10 5 10 7 1 12 -18 8 -16 25 1 18 8 -3 20 -19
26 -35 16 -39 27 -37 39 8 13 45 6 56 -11 18 l-13 -28 -5 24 c-5 20 -12 24
-48 25 -36 1 -42 -2 -43 -20 0 -21 -1 -21 -11 2 -12 24 -27 29 -29 10 -1 -7
-2 -17 -4 -23 -1 -5 -3 -15 -3 -22 -1 -7 -9 -10 -17 -7 -14 6 -13 8 2 20 17
13 17 13 -1 14 -19 0 -19 0 -1 14 17 12 14 14 -32 14 -28 0 -56 -5 -62 -11z
m63 -23 c4 -11 2 -11 -14 -2 -10 7 -23 9 -27 5 -4 -5 -1 -12 7 -17 8 -5 11
-12 8 -15 -11 -11 -28 4 -28 24 0 10 3 20 6 23 9 9 42 -3 48 -18z"/>
<path d="M4234 3265 c-9 -35 2 -55 28 -55 22 1 22 1 4 15 -17 13 -18 15 -3 15
9 0 17 5 17 10 0 6 -7 10 -15 10 -8 0 -15 5 -15 11 0 5 4 8 9 4 5 -3 12 -1 16
5 3 5 -3 10 -14 10 -14 0 -23 -9 -27 -25z"/>
<path d="M6820 3230 c0 -27 5 -50 10 -50 6 0 10 23 10 50 0 28 -4 50 -10 50
-5 0 -10 -22 -10 -50z"/>
<path d="M6933 3268 c-19 -25 -21 -46 -7 -67 18 -25 56 -27 75 -5 12 15 10 16
-18 10 -18 -4 -34 -3 -38 3 -4 7 7 11 29 11 28 0 36 4 36 18 0 37 -55 58 -77
30z m47 -18 c0 -5 -7 -10 -15 -10 -8 0 -15 5 -15 10 0 6 7 10 15 10 8 0 15 -4
15 -10z"/>
<path d="M6487 3243 c-14 -13 -6 -23 18 -23 16 0 25 6 25 15 0 15 -31 21 -43
8z"/>
<path d="M5581 3123 c-8 -14 -10 -14 -11 -3 0 13 -1 13 -10 0 -5 -8 -10 -10
-10 -4 0 14 -77 17 -85 3 -4 -6 -4 -13 0 -17 3 -3 10 0 15 8 6 8 10 10 10 4 0
-7 20 -12 49 -12 37 -1 51 2 55 15 9 23 0 28 -13 6z"/>
<path d="M5607 3126 c-7 -18 1 -26 25 -26 11 0 18 7 18 20 0 23 -35 28 -43 6z
m28 -6 c3 -5 1 -10 -4 -10 -6 0 -11 5 -11 10 0 6 2 10 4 10 3 0 8 -4 11 -10z"/>
<path d="M5660 3121 c0 -17 6 -21 35 -21 32 0 39 6 33 28 -2 4 -18 8 -35 10
-28 3 -33 0 -33 -17z m50 -1 c0 -5 -4 -10 -10 -10 -5 0 -10 5 -10 10 0 6 5 10
10 10 6 0 10 -4 10 -10z"/>
<path d="M5747 3125 c-4 -8 -2 -17 3 -20 6 -4 10 3 10 14 0 25 -6 27 -13 6z"/>
<path d="M5770 3120 c0 -15 6 -20 28 -19 17 1 21 3 9 6 -14 4 -16 8 -6 19 9
11 7 14 -10 14 -14 0 -21 -6 -21 -20z"/>
<path d="M5820 3131 c0 -5 6 -14 14 -20 11 -10 17 -8 25 6 10 17 10 17 11 1 0
-13 8 -18 28 -18 19 0 23 3 13 9 -7 5 -10 14 -7 20 5 7 -3 11 -23 11 -16 0
-32 -6 -34 -12 -4 -10 -6 -10 -6 0 -1 13 -21 17 -21 3z"/>
<path d="M5046 3123 c-18 -18 5 -23 114 -23 89 0 120 3 120 13 0 8 3 8 8 2 4
-6 33 -12 65 -13 45 -2 57 1 57 13 0 18 -11 19 -29 3 -8 -7 -11 -8 -8 -2 4 7
-31 10 -118 10 -76 -1 -125 -5 -125 -11 0 -5 -5 -3 -10 5 -9 13 -10 13 -10 0
0 -9 -3 -11 -8 -5 -8 12 -47 17 -56 8z"/>
<path d="M5426 3123 c-11 -11 -6 -23 9 -23 8 0 15 4 15 9 0 13 -16 22 -24 14z"/>
</g>
</svg>
