<?xml version="1.0" standalone="no"?>
<!DOCTYPE svg PUBLIC "-//W3C//DTD SVG 20010904//EN"
 "http://www.w3.org/TR/2001/REC-SVG-20010904/DTD/svg10.dtd">
<svg version="1.0" xmlns="http://www.w3.org/2000/svg"
 width="2000.000000pt" height="2000.000000pt" viewBox="0 0 2000.000000 2000.000000"
 preserveAspectRatio="xMidYMid meet">
<metadata>
Created by potrace 1.14, written by Peter Selinger 2001-2017
</metadata>
<g transform="translate(0.000000,2000.000000) scale(0.100000,-0.100000)"
fill="#000000" stroke="none">
<path d="M1998 19012 l-1998 -2 0 -60 0 -60 10000 0 10000 0 0 66 0 65 -8002
-3 c-4402 -2 -8902 -4 -10000 -6z"/>
<path d="M0 18761 l0 -69 33 -4 c18 -2 4518 -5 10000 -7 l9967 -3 0 76 0 76
-10000 0 -10000 0 0 -69z"/>
<path d="M0 18565 l0 -85 9548 -3 9547 -2 -9547 -3 -9548 -2 0 -198 0 -199
168 -6 c92 -3 4592 -6 10000 -7 l9832 -1 0 296 0 295 -10000 0 -10000 -1 0
-84z m19683 -92 c-100 -2 -266 -2 -370 0 -103 1 -21 2 182 2 204 0 288 -1 188
-2z"/>
<path d="M6853 17872 l-6853 -2 0 -115 0 -115 10000 0 10000 0 0 118 0 118
-3147 0 c-1732 -1 -6232 -2 -10000 -4z"/>
<path d="M2417 17552 l-2417 -2 0 -1565 0 -1565 3872 0 c3688 0 3870 -1 3855
-18 -8 -9 -20 -29 -26 -45 l-11 -27 -3845 0 -3845 0 0 -120 0 -120 3762 0
3761 0 -21 -23 c-24 -25 -29 -57 -11 -57 7 0 0 -11 -15 -25 -17 -16 -26 -34
-26 -55 l0 -30 -3725 0 -3725 0 0 -295 0 -295 757 -2 c417 -2 2020 -4 3562 -5
1542 -2 2806 -5 2809 -8 3 -3 -1600 -5 -3561 -5 l-3567 0 0 -86 0 -87 338 3
c457 4 1224 4 2332 0 855 -2 2592 -6 3933 -9 488 -1 557 -3 557 -16 0 -13
-404 -15 -3580 -15 l-3580 0 0 -70 0 -70 1380 0 c913 0 1380 -3 1380 -10 0 -8
-1378 -14 -2563 -11 -186 0 -197 -1 -197 -19 0 -10 6 -21 12 -23 10 -4 10 -6
1 -6 -7 -1 -13 -10 -13 -21 0 -20 7 -20 2878 -22 2871 -1 4230 -4 4245 -8 4
-2 13 -3 19 -4 22 -2 19 -31 -5 -54 l-24 -22 -3144 -4 c-1729 -2 -3330 -5
-3556 -5 l-413 -1 0 -44 0 -44 1797 -1 c989 -1 2593 -1 3566 -1 1564 0 1767
-2 1767 -15 0 -8 4 -15 9 -15 6 0 6 -12 0 -30 -8 -20 -18 -30 -32 -31 -12 0
-1500 -2 -3307 -4 -1807 -2 -3401 -4 -3542 -4 l-258 -1 0 -39 0 -38 3557 -2
c1957 -1 3560 -5 3563 -10 3 -4 15 -7 28 -6 19 1 22 -3 22 -36 0 -20 -8 -46
-17 -58 l-18 -21 -3380 -2 c-3773 -2 -3755 -2 -3755 -23 0 -13 462 -15 3583
-17 2896 -3 3586 -5 3605 -16 15 -9 22 -22 22 -42 0 -17 5 -39 12 -49 6 -10 8
-26 5 -35 -6 -15 -282 -16 -3539 -18 -1943 -2 -3568 -2 -3610 -1 -63 2 -78 0
-78 -12 0 -13 441 -15 3624 -15 2887 0 3626 -3 3634 -12 5 -7 15 -30 23 -51 7
-20 23 -44 36 -52 26 -18 29 -37 9 -54 -10 -9 -819 -13 -3237 -17 -1773 -3
-3419 -6 -3656 -6 l-433 0 0 -23 0 -23 3672 -1 c2414 -1 3676 -5 3682 -11 6
-6 18 -10 29 -10 27 0 97 -76 97 -106 l0 -24 -3740 0 c-3318 0 -3740 -2 -3740
-15 0 -15 1247 -20 5695 -20 693 0 1393 -1 1555 -3 l295 -2 93 -70 c51 -38 93
-73 95 -77 1 -5 -95 -10 -213 -13 l-215 -6 222 -2 c126 -1 234 -7 250 -13 30
-11 83 -57 83 -71 0 -5 17 -46 38 -91 50 -107 67 -150 86 -217 20 -68 37 -180
30 -191 -3 -5 -1807 -9 -4010 -9 -3997 0 -4004 0 -4004 -20 0 -20 7 -20 4009
-20 3646 0 4009 -1 4015 -16 3 -9 6 -40 6 -70 l0 -54 -4015 0 -4015 0 0 -35 0
-35 4023 -2 4022 -3 3 -52 3 -53 -4025 0 -4026 0 0 -45 0 -45 4029 0 4030 0
15 -22 c9 -12 16 -33 16 -45 l0 -23 -4045 0 -4045 0 0 -60 0 -60 4083 0 4082
0 130 -39 c72 -22 200 -69 285 -106 152 -65 450 -214 549 -275 28 -17 62 -33
76 -34 14 -1 28 -6 33 -11 4 -4 1 -5 -5 -1 -7 4 -13 2 -13 -3 0 -6 4 -11 10
-11 5 0 26 -11 46 -25 21 -14 48 -28 62 -32 13 -3 37 -18 53 -33 17 -15 50
-37 74 -49 25 -12 47 -27 51 -33 4 -7 9 -6 14 2 4 7 13 9 20 5 8 -5 9 -10 1
-14 -6 -4 1 -14 19 -25 17 -9 30 -12 30 -7 0 6 5 11 11 11 6 0 9 -7 5 -15 -6
-17 20 -34 43 -28 9 2 25 -4 36 -14 11 -10 33 -26 48 -36 15 -10 25 -22 22
-27 -3 -6 1 -7 9 -4 8 3 30 -6 49 -20 19 -14 39 -26 45 -26 7 0 12 -3 12 -7 0
-5 24 -24 52 -43 29 -19 100 -71 158 -114 322 -244 489 -422 629 -674 78 -138
97 -164 70 -93 -17 47 -63 130 -130 238 l-21 33 33 47 c45 65 181 206 249 256
61 46 114 55 143 25 9 -9 30 -22 47 -30 16 -7 30 -19 30 -26 0 -7 11 -17 25
-22 14 -5 25 -14 25 -20 0 -7 8 -9 21 -5 14 5 19 3 15 -3 -14 -23 23 -30 174
-35 84 -2 108 -11 90 -32 -9 -11 -7 -14 12 -13 13 0 33 5 46 11 17 8 25 8 30
0 7 -12 76 -3 89 11 4 3 13 1 20 -6 11 -9 16 -9 23 2 4 7 15 10 25 7 9 -4 13
-12 9 -18 -5 -9 1 -10 19 -5 14 3 28 2 32 -4 3 -5 13 -6 22 -3 9 4 19 -1 25
-11 8 -13 13 -15 24 -5 8 6 14 9 14 5 0 -4 18 3 40 14 21 11 50 20 62 20 13 0
29 9 36 20 7 12 18 18 23 14 6 -4 15 -1 19 5 4 7 27 15 51 17 72 8 120 24 126
42 4 9 19 28 34 42 42 39 62 76 51 96 -7 13 -10 11 -15 -15 -4 -17 -19 -44
-34 -59 l-28 -27 -3 24 c-3 15 6 33 24 52 18 19 28 40 28 63 1 37 25 40 27 2
1 -13 3 -15 5 -6 12 44 -141 42 3869 41 l3805 -2 0 36 0 35 -3287 0 c-1809 0
-3529 0 -3824 0 l-536 0 -1 33 c-1 36 21 73 37 62 6 -3 11 -1 11 4 0 8 1132
11 3800 11 l3800 0 0 50 0 50 -3800 0 c-2862 0 -3805 3 -3825 12 -16 7 -25 19
-25 34 0 28 16 40 27 20 7 -13 15 -13 63 0 46 12 597 14 3807 14 l3753 0 0 60
0 60 -3807 0 c-3779 0 -3808 0 -3840 20 -18 11 -33 24 -33 30 0 7 1250 10
3840 10 l3840 0 0 80 0 80 -3859 0 c-2123 0 -3862 4 -3865 8 -3 5 3 8 12 8 9
0 1748 1 3865 2 l3847 2 0 130 0 130 -3894 0 c-3449 0 -3895 2 -3906 15 -10
12 -10 18 0 30 11 13 457 15 3906 15 l3894 0 0 60 0 60 -3868 0 -3867 0 -15
43 -16 42 3883 -3 3883 -2 0 50 0 50 -3930 0 c-2285 0 -3930 4 -3930 9 0 5 17
12 37 16 47 8 102 37 127 64 l19 21 3839 0 3838 0 0 35 0 35 -3797 2 c-3765 3
-3875 4 -3784 33 23 7 27 37 11 79 l-10 26 3790 0 c3783 0 3790 0 3790 20 0
20 -7 20 -3790 20 -3599 0 -3790 1 -3799 18 -5 9 -8 20 -8 25 1 4 -13 16 -30
27 -18 11 -33 24 -33 30 0 5 -8 10 -18 10 -47 0 -55 53 -14 93 22 21 43 29
107 37 95 13 176 49 210 94 26 34 37 79 20 82 -27 4 -55 17 -55 25 0 5 -3 8
-7 8 -5 -1 -10 -1 -13 1 -31 11 -78 5 -146 -20 -80 -30 -148 -38 -158 -21 -3
5 -15 7 -26 4 -16 -4 -20 0 -20 18 0 22 0 22 -14 3 -14 -18 -16 -18 -46 16
-17 19 -34 40 -38 45 -11 14 -10 135 1 135 5 0 6 12 3 26 -6 22 -4 25 9 20 10
-3 14 -2 10 5 -4 5 -1 16 5 24 10 12 9 15 -8 15 -11 0 -25 7 -32 15 -7 8 -17
12 -22 9 -6 -4 -5 -9 2 -14 9 -6 6 -11 -10 -20 -26 -14 -38 -6 -21 14 7 8 10
20 6 26 -9 15 -25 2 -25 -21 0 -10 -7 -19 -15 -19 -8 0 -15 -6 -15 -12 0 -9
-4 -8 -11 2 -8 11 -9 5 -4 -23 4 -28 2 -39 -9 -43 -8 -3 -12 -12 -9 -20 3 -8
-3 -25 -14 -37 -11 -12 -23 -33 -26 -48 -4 -14 -18 -50 -32 -80 -14 -29 -24
-46 -21 -37 3 12 1 15 -10 11 -20 -7 -18 -20 5 -33 14 -7 21 -6 24 3 4 9 6 9
6 0 1 -6 -3 -15 -9 -18 -5 -3 -10 -17 -10 -31 0 -13 -9 -33 -20 -44 -23 -23
-25 -37 -9 -42 8 -3 6 -10 -5 -20 -9 -9 -12 -19 -7 -22 16 -10 19 -57 5 -63
-20 -8 -17 -24 4 -21 17 3 41 46 46 83 3 28 23 72 34 79 6 3 19 -10 31 -29 11
-19 26 -35 32 -35 6 0 27 -13 46 -30 18 -16 40 -30 48 -30 8 0 15 -4 15 -10 0
-5 13 -10 28 -10 16 0 39 -9 52 -20 l23 -20 -30 0 c-22 0 -33 -6 -41 -25 -10
-21 -9 -23 6 -19 9 2 5 -2 -11 -9 -15 -7 -24 -16 -21 -20 4 -4 -3 -7 -15 -7
-15 0 -20 -4 -15 -12 4 -7 -3 -3 -15 10 -12 12 -25 22 -28 22 -4 0 -4 -3 0 -6
9 -10 -16 -32 -30 -27 -7 3 -13 0 -13 -6 0 -15 -33 -14 -48 1 -9 9 -12 9 -12
1 0 -7 5 -15 10 -18 6 -3 10 -10 10 -15 0 -11 -24 -7 -41 6 -26 20 -50 24 -55
9 -4 -8 -10 -12 -15 -9 -5 3 -9 1 -9 -5 0 -18 20 -23 26 -7 8 21 24 21 24 0 0
-9 6 -14 13 -11 8 3 14 -1 14 -9 0 -8 -6 -13 -14 -10 -8 4 -13 -2 -13 -16 0
-21 -1 -21 -27 4 -26 24 -53 28 -53 7 0 -4 7 -6 15 -3 8 4 15 1 15 -5 0 -6 -6
-11 -12 -11 -20 -1 -50 -72 -35 -82 9 -6 9 -10 -2 -17 -7 -5 -11 -13 -7 -19 3
-5 -5 -13 -18 -16 -18 -4 -23 -11 -19 -26 4 -15 0 -20 -16 -20 -14 0 -21 -6
-21 -19 0 -23 -26 -35 -34 -15 -3 8 -14 14 -23 12 -13 -2 -19 5 -21 25 -4 32
-17 36 -25 7 -6 -23 -37 -27 -37 -5 0 18 -16 20 -24 3 -5 -10 -7 -10 -12 0 -8
17 -24 15 -24 -3 0 -20 -5 -19 -34 6 -23 20 -24 23 -9 45 8 13 13 29 10 36 -2
8 -10 0 -18 -17 -8 -16 -20 -35 -27 -41 -12 -8 -11 -12 2 -23 8 -7 20 -10 26
-6 5 3 10 3 10 -2 -1 -12 -30 -49 -30 -37 0 5 -11 10 -25 10 -14 1 -25 -2 -25
-7 0 -5 -7 -9 -16 -9 -14 0 -14 3 -4 15 7 8 8 15 3 15 -5 0 -10 18 -11 40 -2
32 2 40 16 40 13 0 14 -2 3 -9 -9 -6 -10 -14 -4 -26 9 -15 12 -14 27 10 15 22
15 27 2 40 -8 8 -20 15 -26 15 -7 0 -10 8 -7 20 3 11 1 20 -4 20 -5 0 -9 -11
-9 -25 0 -15 -6 -25 -14 -25 -17 0 -26 -22 -26 -63 0 -24 -3 -28 -10 -17 -5 8
-22 15 -37 15 -23 0 -28 5 -29 25 -1 14 2 30 7 36 4 5 7 22 6 37 -1 14 3 26 8
26 6 1 10 -7 10 -16 0 -10 8 -19 18 -21 12 -2 17 3 17 17 0 12 6 21 15 21 10
0 15 10 15 30 0 28 -20 45 -20 18 0 -8 -5 -6 -10 4 -6 10 -19 15 -32 12 -13
-2 -17 -1 -10 2 9 4 10 9 2 19 -8 9 -8 15 0 20 5 3 10 1 10 -4 0 -6 7 -11 17
-11 15 0 14 2 -2 20 -21 23 -14 53 11 43 13 -5 15 -2 9 18 -4 13 -14 35 -22
48 -12 19 -17 21 -24 10 -11 -18 -11 -32 0 -24 5 3 12 1 15 -4 4 -5 -2 -8 -11
-7 -9 2 -19 8 -21 14 -2 7 -8 12 -14 12 -6 0 -7 -7 -4 -16 3 -9 2 -12 -5 -9
-5 4 -18 1 -27 -7 -15 -11 -16 -11 -4 3 10 14 10 18 -1 22 -8 3 -14 17 -14 31
0 14 3 23 8 21 4 -3 10 -1 14 5 4 6 10 8 15 5 9 -6 23 25 15 34 -3 3 -10 -1
-15 -9 -6 -8 -10 -11 -10 -6 0 5 -7 3 -15 -4 -12 -10 -15 -10 -15 0 0 7 -6 10
-14 7 -10 -4 -12 0 -8 15 3 14 7 16 12 7 5 -6 14 -10 21 -7 17 7 54 68 41 68
-5 0 -12 -9 -15 -20 -3 -12 -14 -20 -26 -20 -14 0 -21 6 -21 20 0 23 -10 26
-28 8 -6 -6 -15 -9 -19 -5 -3 4 2 13 12 21 11 8 15 18 10 26 -6 10 -9 9 -16
-1 -12 -19 -60 8 -51 29 4 11 1 14 -10 9 -11 -4 -15 -1 -13 11 2 9 4 19 4 22
1 3 5 -1 10 -9 5 -8 14 -10 21 -6 10 6 9 10 -4 17 -9 5 -16 16 -16 23 0 8 -4
15 -9 15 -10 0 -2 48 10 56 9 5 -11 44 -23 44 -5 0 -8 -6 -8 -14 0 -8 -6 -17
-12 -20 -7 -3 -3 -3 10 0 21 5 22 4 10 -15 -16 -26 -24 -27 -30 -3 -7 26 8 59
31 72 12 6 21 16 21 22 0 9 -3 9 -12 0 -14 -14 -32 -16 -23 -3 3 5 1 12 -5 16
-6 4 -7 11 -4 17 4 7 9 7 13 0 4 -7 12 -8 21 -2 10 7 11 10 3 10 -7 0 -13 5
-13 10 0 6 7 10 15 10 8 0 15 -5 15 -10 0 -14 36 5 43 23 2 7 -2 22 -10 32
-12 17 -15 18 -23 5 -6 -9 -5 -17 2 -21 6 -4 7 -12 3 -19 -8 -14 -45 15 -45
36 0 8 -6 11 -15 8 -8 -4 -15 -1 -15 6 0 6 -5 8 -10 5 -6 -4 -8 -12 -4 -18 3
-7 0 -5 -8 4 -12 15 -19 19 -34 19 -3 0 4 9 17 19 14 11 20 23 15 28 -5 4 -11
2 -13 -4 -4 -10 -12 -9 -34 3 -16 8 -34 12 -39 9 -13 -8 -13 18 0 33 7 9 7 9
-2 2 -19 -16 -24 -12 -23 17 0 15 -6 28 -15 30 -13 4 -13 3 0 -6 15 -11 17 -9
-36 -26 -22 -7 -40 5 -23 16 10 6 9 9 -5 15 -12 5 -22 2 -28 -9 -5 -10 -15
-17 -23 -17 -9 0 -12 -6 -9 -15 4 -10 0 -15 -11 -15 -12 0 -15 5 -10 18 4 9 9
24 12 32 4 13 4 13 -6 0 -10 -13 -13 -12 -27 5 -18 24 -23 25 -35 3 -15 -27
-32 -22 -18 5 11 19 10 20 -3 9 -13 -10 -16 -9 -21 9 -3 12 -10 18 -16 14 -6
-3 -11 -1 -11 4 0 15 23 14 40 -1 12 -11 12 -10 0 5 -12 16 -12 20 1 28 11 7
11 9 1 9 -27 0 -59 -34 -52 -55 4 -11 3 -23 -4 -27 -6 -4 -1 -11 14 -18 l25
-11 -25 6 c-14 2 -28 5 -32 5 -4 0 -8 10 -10 22 -2 12 -9 23 -16 26 -7 2 -10
-2 -6 -12 3 -9 1 -16 -5 -16 -6 0 -11 5 -11 10 0 6 -8 10 -18 10 -9 0 -23 9
-30 20 -7 11 -19 20 -27 20 -8 0 -15 9 -15 19 0 11 -3 21 -7 24 -5 2 -2 2 5 1
17 -5 15 7 -5 22 -15 11 -15 13 -3 14 10 0 11 3 4 8 -6 4 -16 25 -22 47 l-10
40 -1 -37 c-1 -21 -6 -38 -11 -38 -7 0 -7 -6 0 -19 5 -11 10 -26 10 -33 -1
-16 -30 50 -30 67 0 17 -42 84 -53 85 -4 0 -5 -11 -1 -25 3 -14 3 -25 0 -25
-4 0 -11 11 -16 25 -11 29 -34 35 -25 6 3 -12 0 -21 -10 -25 -9 -3 -13 -2 -10
3 3 5 -3 12 -14 16 -10 3 -24 19 -31 35 -7 17 -17 30 -22 30 -5 0 -6 -5 -3
-10 8 -13 -20 -42 -30 -32 -8 7 1 -57 12 -84 10 -25 -13 -15 -37 18 -24 33
-35 78 -19 78 5 0 3 13 -6 29 -11 23 -12 31 -2 34 8 4 8 8 2 14 -11 9 -13 48
-2 59 4 4 7 -1 7 -11 0 -10 3 -15 7 -12 3 4 0 18 -7 32 -10 19 -10 28 -1 38 9
11 8 17 -3 27 -13 10 -15 8 -11 -9 2 -12 -1 -21 -6 -21 -6 0 -7 -9 -4 -21 5
-15 4 -19 -4 -15 -12 8 -10 -41 2 -61 4 -6 3 -22 -2 -35 l-10 -23 -2 25 c-1
14 -3 33 -3 42 -1 10 -10 24 -21 32 -11 9 -14 16 -8 16 9 0 10 7 3 26 -6 14
-6 23 -1 20 16 -10 41 6 41 26 0 25 21 46 39 40 8 -3 11 0 7 6 -3 6 -2 13 4
17 5 3 10 -1 10 -9 0 -27 15 -18 33 19 9 19 21 35 27 35 5 0 10 9 10 20 0 13
5 18 15 14 8 -4 15 -15 15 -26 0 -10 -4 -16 -10 -13 -5 3 -10 1 -10 -4 0 -6
-7 -11 -16 -11 -8 0 -13 -4 -10 -9 3 -5 -1 -11 -9 -15 -8 -3 -15 -10 -15 -15
0 -7 9 -7 26 -1 23 9 25 8 19 -10 -5 -15 -2 -20 10 -20 13 0 16 6 13 25 -3 13
-1 22 3 19 5 -3 9 -11 9 -18 0 -17 38 -28 42 -14 3 7 12 7 27 -1 18 -10 25
-10 35 0 8 9 7 11 -6 6 -21 -8 -24 6 -4 22 7 6 11 22 8 36 -2 15 0 25 7 25 6
0 11 -7 11 -16 0 -8 4 -13 9 -10 5 3 8 -12 7 -34 -1 -22 1 -40 5 -40 11 0 18
31 14 63 -2 18 1 27 11 27 8 0 17 6 20 13 5 15 74 20 74 5 0 -5 5 -6 12 -2 8
5 6 11 -5 19 -21 15 -21 17 2 43 24 29 29 28 25 -7 -4 -37 22 -50 30 -15 6 23
27 31 66 25 8 -1 27 -4 42 -6 14 -1 31 -6 37 -9 6 -4 31 -7 56 -8 29 0 48 -6
54 -16 6 -11 20 -13 62 -9 43 5 63 2 97 -14 23 -12 40 -25 37 -29 -3 -5 1 -11
7 -14 10 -5 10 -7 1 -12 -15 -6 -18 -34 -4 -34 5 0 11 7 15 15 3 8 12 15 21
15 8 0 15 -7 15 -15 0 -8 7 -15 16 -15 10 0 14 -6 10 -15 -4 -11 2 -15 25 -15
17 0 28 -4 25 -8 -2 -4 3 -8 12 -8 9 -1 54 -3 100 -4 45 -2 82 -7 82 -11 0 -5
7 -9 15 -9 9 0 12 -6 8 -17 -4 -11 -3 -14 5 -9 18 11 51 -16 57 -46 4 -15 15
-30 26 -33 10 -4 20 -11 20 -16 1 -5 2 -13 3 -18 0 -5 5 -13 10 -18 5 -5 6 -3
2 5 -13 21 12 13 39 -14 14 -14 29 -24 31 -21 3 3 17 -1 32 -9 16 -8 28 -10
30 -4 5 14 28 12 44 -2 18 -18 98 -61 98 -53 0 3 9 1 20 -5 15 -8 20 -8 20 1
0 6 6 9 14 6 14 -5 36 31 36 58 0 8 5 15 10 15 6 0 10 10 10 23 0 26 26 67 42
67 6 0 24 15 40 33 17 17 27 26 22 18 -5 -10 -3 -12 7 -5 7 4 28 7 45 5 21 -1
33 3 37 13 4 9 13 16 21 16 11 0 15 28 21 136 11 197 -7 323 -45 324 -8 1 -79
1 -157 0 -138 -1 -143 0 -143 20 0 23 -31 41 -38 22 -2 -7 -8 -9 -13 -6 -17
10 -379 10 -369 0 5 -5 97 -12 205 -14 107 -3 195 -8 195 -12 0 -13 -41 -17
-202 -20 -84 -1 -164 -4 -178 -5 -14 -1 -35 -3 -48 -4 -13 0 -20 -5 -17 -11 6
-10 -6 -14 -38 -10 -10 1 -27 -6 -37 -15 -10 -9 -25 -17 -33 -19 -8 -1 -22 -8
-32 -16 -9 -7 -15 -9 -13 -3 2 6 -1 11 -7 11 -5 0 -9 -4 -7 -9 3 -12 -15 -11
-23 1 -11 17 -25 11 -25 -10 0 -24 -27 -37 -43 -21 -17 17 -64 13 -79 -6 -16
-23 -39 -28 -32 -8 4 10 0 15 -11 15 -9 0 -13 -4 -10 -10 3 -5 1 -10 -4 -10
-6 0 -11 5 -11 11 0 8 -6 7 -17 -2 -15 -13 -15 -12 -5 8 15 28 15 38 0 26 -17
-13 -91 -15 -83 -3 3 6 -2 11 -12 12 -10 1 -25 2 -33 4 -8 1 -25 2 -38 3 -13
1 -20 6 -17 11 8 13 -1 13 -26 -1 -22 -11 -129 -2 -129 12 0 4 17 10 38 12 20
2 -80 4 -223 5 -235 1 -431 -7 -555 -23 -32 -4 -39 -3 -24 4 35 16 169 32 369
46 50 4 304 15 368 17 59 2 74 18 17 18 -23 0 -39 4 -36 9 3 5 81 9 173 10 92
1 169 4 172 6 8 8 -352 5 -600 -5 -371 -15 -496 -33 -632 -90 -66 -28 -149
-81 -104 -66 11 4 16 2 12 -5 -4 -6 -13 -8 -20 -5 -7 2 -24 -4 -36 -15 l-23
-19 35 -36 c30 -31 39 -35 71 -31 27 4 43 0 59 -14 12 -10 30 -19 41 -19 10 0
18 -4 18 -10 0 -5 -4 -10 -9 -10 -5 0 2 -22 15 -50 24 -49 31 -89 17 -91 -59
-5 -80 -3 -71 9 8 9 5 12 -11 12 -14 0 -26 10 -34 27 -13 28 -91 113 -105 113
-4 0 -32 16 -62 35 -50 31 -62 35 -129 35 -103 0 -208 -26 -246 -62 -17 -15
-36 -28 -43 -28 -6 0 -19 -16 -28 -36 -12 -26 -19 -32 -26 -22 -7 11 -11 10
-21 -2 -6 -8 -24 -16 -39 -18 -31 -3 -30 11 4 60 10 14 18 30 18 36 0 20 123
124 177 150 49 23 71 27 143 27 76 0 93 -4 148 -31 l62 -31 42 29 c59 40 163
92 223 111 94 30 278 57 469 68 329 18 374 28 106 22 -135 -2 -243 -2 -239 1
3 3 70 10 150 16 112 9 147 15 157 28 7 9 12 11 12 4 0 -7 5 -12 10 -12 6 0
10 6 10 14 0 9 7 12 20 9 11 -3 20 -9 20 -14 0 -16 36 -9 58 12 12 11 30 19
40 17 9 -1 23 1 31 6 11 7 13 4 9 -12 -4 -12 -2 -20 3 -16 5 3 9 16 9 29 0 19
-4 23 -17 18 -16 -6 -16 -5 -4 10 8 10 11 21 7 24 -4 4 -11 1 -16 -7 -8 -12
-10 -9 -10 11 0 34 -10 43 -26 21 -8 -10 -13 -12 -14 -4 0 18 -18 15 -23 -5
-3 -11 -5 -7 -6 10 0 15 -8 30 -16 34 -24 9 -32 -7 -11 -22 24 -18 12 -39 -13
-23 -11 7 -16 19 -13 33 3 19 -1 23 -23 23 -19 0 -29 -7 -32 -19 -6 -21 -18
-25 -28 -9 -3 5 -7 28 -8 50 -1 41 -12 53 -20 23 -4 -15 -5 -16 -6 -2 0 9 -10
19 -21 22 -23 6 -27 -8 -5 -17 16 -6 21 -36 7 -36 -17 0 -44 39 -40 57 2 12
11 17 28 16 14 -2 35 -3 48 -4 22 -2 26 -10 22 -61 -2 -30 14 -38 24 -12 3 8
10 12 16 9 5 -3 10 -1 10 4 0 6 -4 11 -9 11 -4 0 -6 11 -3 25 2 14 7 23 10 21
3 -3 12 0 19 6 12 9 14 9 12 -3 -7 -40 38 -88 55 -60 4 5 24 -8 46 -30 21 -21
44 -39 50 -39 5 0 10 -7 10 -15 0 -9 6 -12 16 -8 8 3 13 11 10 18 -2 7 10 19
28 28 26 12 33 21 33 45 l0 30 -17 -21 c-9 -12 -20 -29 -23 -37 -4 -11 -6 -10
-6 4 -1 15 -4 16 -16 6 -8 -7 -15 -9 -15 -4 0 4 -5 3 -12 -4 -19 -19 -51 5
-44 33 4 16 1 25 -10 29 -12 5 -15 15 -11 39 3 17 3 26 0 20 -7 -19 -33 -15
-33 5 0 14 2 15 10 2 8 -12 10 -12 11 5 0 11 3 33 5 50 4 21 0 34 -13 44 -17
13 -17 13 0 8 16 -6 17 0 13 54 -3 33 -11 68 -18 77 -8 11 -5 10 11 -3 13 -11
30 -37 38 -57 8 -21 19 -38 23 -38 5 0 11 -8 13 -17 3 -10 5 -4 6 14 0 17 -5
34 -11 36 -10 4 -10 6 -1 6 6 1 15 -3 18 -9 9 -15 38 -12 32 3 -2 6 -10 11
-16 9 -14 -3 -15 54 -1 63 5 3 7 19 3 35 -13 68 38 17 62 -62 13 -41 14 -42
16 -13 1 17 3 44 3 60 2 33 17 45 26 20 13 -37 2 184 -12 232 -11 38 -12 50
-2 46 6 -2 15 1 19 7 3 6 1 9 -6 8 -6 -2 -14 3 -17 11 -3 9 0 11 8 6 9 -6 9
-3 1 14 -14 25 -23 28 -14 4 6 -15 4 -16 -9 -5 -20 16 -32 109 -19 142 7 18
10 20 10 8 1 -21 5 -22 32 -8 12 7 19 7 19 1 0 -12 40 -5 54 9 17 17 46 12 40
-7 -5 -17 -5 -17 8 -1 22 26 129 13 112 -14 -4 -6 0 -6 14 1 11 6 35 8 53 5
19 -3 40 -6 47 -6 6 -1 12 -5 12 -9 0 -4 10 -7 23 -8 41 -1 132 -9 137 -12 3
-1 28 -3 55 -4 28 -1 82 -5 122 -9 46 -4 74 -3 78 4 3 5 16 10 28 10 16 0 18
-3 9 -9 -11 -7 -11 -9 2 -14 9 -4 15 -1 13 6 -1 6 8 13 21 15 12 2 22 -2 22
-8 0 -6 4 -8 10 -5 5 3 10 1 10 -5 0 -6 11 1 25 16 21 22 26 24 31 10 3 -9 14
-16 24 -16 11 0 22 -4 25 -10 3 -5 15 -10 25 -10 12 0 17 -5 14 -13 -4 -10 3
-12 26 -9 16 2 30 0 30 -5 0 -6 19 -15 43 -22 23 -7 75 -29 114 -48 87 -42
122 -86 158 -202 14 -43 35 -87 48 -99 l23 -22 1180 -3 1179 -2 -1187 -3
-1188 -2 0 -22 c0 -44 21 -99 51 -132 23 -26 28 -40 23 -62 -4 -21 3 -45 25
-88 21 -38 31 -72 31 -101 0 -23 6 -48 13 -54 10 -8 1049 -11 3875 -11 l3862
0 0 135 0 135 -1145 0 c-757 0 -1145 3 -1145 10 0 7 388 10 1145 10 l1145 0 0
395 0 395 -3909 0 c-2150 0 -3922 3 -3939 6 -30 6 -30 7 -30 68 0 33 -4 73 -7
89 l-7 27 3946 0 3946 0 0 120 0 120 -267 1 c-148 0 -1927 0 -3955 -1 l-3687
-1 -16 37 c-8 20 -15 40 -15 43 0 4 1787 6 3970 4 l3970 -3 0 1576 0 1576
-7582 -4 c-4171 -2 -8671 -4 -10001 -6z m7960 -2594 c-3 -7 -5 -2 -5 12 0 14
2 19 5 13 2 -7 2 -19 0 -25z m440 -15 c-3 -10 -5 -4 -5 12 0 17 2 24 5 18 2
-7 2 -21 0 -30z m-3064 -559 c9 -9 -16 -44 -30 -44 -14 0 -16 10 -7 34 6 16
25 21 37 10z m2910 -885 c8 -30 -4 -120 -14 -113 -5 3 -9 21 -9 40 0 21 4 33
10 29 12 -8 12 -8 1 33 -5 17 -6 32 -1 32 4 0 10 -10 13 -21z m-73 -71 c0 -5
-7 -3 -15 6 -8 8 -15 18 -15 22 0 3 7 1 15 -6 8 -7 15 -17 15 -22z m10 -39 c0
-6 -4 -7 -10 -4 -5 3 -10 11 -10 16 0 6 5 7 10 4 6 -3 10 -11 10 -16z m-60
-89 c0 -5 -4 -10 -10 -10 -5 0 -10 5 -10 10 0 6 5 10 10 10 6 0 10 -4 10 -10z
m-3342 -7 c-10 -2 -28 -2 -40 0 -13 2 -5 4 17 4 22 1 32 -1 23 -4z m10630 0
c-443 -2 -1172 -2 -1620 0 -447 1 -84 2 807 2 891 0 1257 -1 813 -2z m-7588
-34 c0 -5 -4 -9 -10 -9 -5 0 -10 7 -10 16 0 8 5 12 10 9 6 -3 10 -10 10 -16z
m55 11 c3 -5 -1 -10 -10 -10 -9 0 -13 5 -10 10 3 6 8 10 10 10 2 0 7 -4 10
-10z m236 -17 c-8 -15 -10 -15 -11 -2 0 17 10 32 18 25 2 -3 -1 -13 -7 -23z
m-155 -37 c0 -13 -4 -22 -8 -19 -11 6 -10 43 1 43 5 0 8 -11 7 -24z m78 -26
l7 -25 -15 25 c-17 28 -21 50 -7 35 5 -6 12 -21 15 -35z m-164 -1 c0 -11 -7
-22 -15 -25 -10 -4 -13 -13 -10 -25 5 -14 2 -17 -10 -13 -10 4 -13 13 -10 24
4 12 0 20 -12 23 -10 3 -3 5 16 6 27 1 31 4 22 14 -6 8 -8 17 -5 20 11 11 24
-3 24 -24z m-110 0 c0 -6 -4 -7 -10 -4 -5 3 -10 11 -10 16 0 6 5 7 10 4 6 -3
10 -11 10 -16z m240 -40 c0 -16 -4 -29 -10 -29 -5 0 -9 16 -8 35 1 41 18 36
18 -6z m-33 -53 c-9 -69 -24 -61 -22 11 3 82 3 85 16 53 6 -14 8 -42 6 -64z
m-86 62 c7 -32 7 -127 -1 -138 -9 -13 -12 -12 -25 4 -8 11 -15 25 -14 30 0 6
3 5 6 -1 2 -7 11 -13 18 -13 10 0 11 5 2 25 -7 14 -15 25 -19 25 -5 0 -8 5 -8
11 0 8 4 9 13 0 20 -16 27 -3 16 26 -5 13 -9 26 -9 29 0 4 20 6 21 2z m-181
-23 c0 -8 -4 -15 -9 -15 -13 0 -22 16 -14 24 11 11 23 6 23 -9z m77 -20 c8
-22 -6 -33 -17 -15 -13 20 -12 30 0 30 6 0 13 -7 17 -15z m43 -4 c0 -6 -4 -13
-10 -16 -5 -3 -10 1 -10 9 0 9 5 16 10 16 6 0 10 -4 10 -9z m-407 -43 c3 -10
4 -18 0 -18 -9 0 -32 34 -33 48 0 11 2 11 13 0 7 -7 16 -21 20 -30z m274 10
c-3 -7 -5 -2 -5 12 0 14 2 19 5 13 2 -7 2 -19 0 -25z m313 17 c0 -8 -4 -15
-10 -15 -5 0 -7 7 -4 15 4 8 8 15 10 15 2 0 4 -7 4 -15z m2935 5 c59 -6 -337
-20 -565 -20 -253 0 -580 12 -580 22 0 9 1053 7 1145 -2z m514 6 c-8 -8 -137
-11 -145 -3 -4 4 28 7 71 7 43 0 76 -2 74 -4z m401 -6 c0 -12 -309 -12 -355 0
-17 4 52 8 163 9 122 1 192 -3 192 -9z m60 0 c0 -5 -4 -10 -10 -10 -5 0 -10 5
-10 10 0 6 5 10 10 10 6 0 10 -4 10 -10z m910 0 c21 -9 -79 -15 -195 -13 -77
1 -168 2 -203 2 -44 1 -61 4 -56 12 5 8 70 10 228 6 121 -3 223 -6 226 -7z
m1550 0 c-9 -6 -191 -10 -465 -10 -274 0 -456 4 -465 10 -10 6 151 10 465 10
314 0 475 -4 465 -10z m-3141 -10 c-9 -5 -28 -6 -45 0 -27 8 -26 8 16 9 32 0
40 -2 29 -9z m-3478 -10 c11 -6 19 -21 19 -37 0 -21 -2 -23 -14 -13 -8 6 -12
18 -9 26 3 8 0 14 -7 14 -9 0 -11 -10 -6 -30 3 -16 2 -30 -3 -30 -11 0 -21 49
-14 67 6 16 9 16 34 3z m-241 -50 c0 -13 -1 -13 -10 0 -5 8 -10 22 -10 30 0
13 1 13 10 0 5 -8 10 -22 10 -30z m306 11 c0 -11 -5 -17 -13 -14 -17 6 -17 20
0 26 6 3 12 6 12 6 1 1 1 -7 1 -18z m166 -13 c-7 -7 -12 -8 -12 -2 0 14 12 26
19 19 2 -3 -1 -11 -7 -17z m-752 -9 c0 -6 -4 -7 -10 -4 -5 3 -10 11 -10 16 0
6 5 7 10 4 6 -3 10 -11 10 -16z m59 -21 c14 -39 14 -38 -4 -32 -8 4 -15 16
-15 28 0 12 -6 28 -12 35 -11 10 -10 11 4 6 9 -4 21 -20 27 -37z m135 28 c-3
-8 -1 -17 5 -21 6 -3 11 -14 11 -23 -1 -11 -6 -8 -16 11 -8 15 -12 32 -9 37 9
15 15 12 9 -4z m-237 -18 c-3 -8 -6 -5 -6 6 -1 11 2 17 5 13 3 -3 4 -12 1 -19z
m743 12 c0 -5 -4 -10 -10 -10 -5 0 -10 5 -10 10 0 6 5 10 10 10 6 0 10 -4 10
-10z m-593 -24 c-6 -15 22 -46 42 -46 6 0 14 -13 18 -30 5 -29 23 -43 23 -18
0 9 3 9 11 1 9 -9 8 -16 -4 -28 -9 -8 -14 -22 -11 -30 4 -8 1 -15 -5 -15 -6 0
-11 11 -11 24 0 32 -20 45 -21 14 0 -13 -3 -17 -6 -10 -8 21 -23 13 -23 -13 0
-25 -19 -36 -21 -12 -1 6 -3 27 -5 45 -2 17 1 32 6 32 14 0 13 43 -1 57 -11
11 -6 43 7 43 3 0 4 -6 1 -14z m368 -23 c4 -14 2 -23 -4 -23 -6 0 -11 6 -11
14 0 8 -3 23 -6 33 -5 12 -4 15 3 8 6 -5 14 -20 18 -32z m37 5 c-7 -7 -12 -8
-12 -2 0 14 12 26 19 19 2 -3 -1 -11 -7 -17z m-639 -18 c3 -11 1 -23 -4 -26
-5 -3 -9 6 -9 20 0 31 6 34 13 6z m39 -34 c0 -25 4 -46 9 -46 5 0 9 6 9 14 0
8 5 18 11 22 8 5 10 -4 7 -30 -2 -20 -1 -36 3 -36 15 0 31 31 26 50 -8 30 17
25 33 -7 8 -16 16 -32 19 -37 2 -5 -1 -6 -7 -2 -7 4 -12 14 -12 22 0 8 -4 14
-10 14 -16 0 -12 -40 5 -46 18 -7 21 -58 3 -51 -7 2 -21 -3 -32 -12 -17 -15
-18 -15 -16 4 4 36 0 55 -11 55 -5 0 -7 -4 -4 -10 3 -5 -1 -10 -10 -10 -11 0
-14 6 -9 25 8 32 -9 32 -24 0 -9 -20 -8 -26 6 -35 14 -9 13 -10 -7 -4 -21 6
-23 4 -19 -20 3 -14 2 -26 -2 -26 -4 0 -10 13 -12 29 -2 17 -1 28 4 25 12 -8
22 43 27 140 2 45 12 24 13 -28z m508 33 c0 -6 -4 -7 -10 -4 -5 3 -10 11 -10
16 0 6 5 7 10 4 6 -3 10 -11 10 -16z m-483 -11 c-3 -8 -6 -5 -6 6 -1 11 2 17
5 13 3 -3 4 -12 1 -19z m53 1 c0 -5 -4 -9 -10 -9 -5 0 -10 7 -10 16 0 8 5 12
10 9 6 -3 10 -10 10 -16z m368 -66 l-4 -38 -8 30 c-4 17 -14 42 -22 57 -21 39
-17 44 12 15 20 -20 25 -33 22 -64z m28 78 c-4 -5 6 -19 21 -31 16 -12 20 -19
11 -16 -22 7 -24 -10 -3 -18 8 -3 15 -11 15 -18 0 -9 -3 -9 -10 2 -9 13 -13
12 -26 -5 -15 -19 -16 -18 -9 19 4 26 3 41 -6 46 -10 7 -5 30 7 30 3 0 3 -4 0
-9z m394 -11 c0 -5 -2 -10 -4 -10 -3 0 -8 5 -11 10 -3 6 -1 10 4 10 6 0 11 -4
11 -10z m-555 -21 c-8 -12 -35 -11 -35 2 0 5 5 7 10 4 6 -3 10 -1 10 5 0 6 5
8 10 5 6 -4 8 -11 5 -16z m-6655 1 c0 -15 -32 -20 -130 -20 -100 0 -130 5
-130 22 0 5 55 8 130 7 72 0 130 -5 130 -9z m420 0 c0 -6 -67 -10 -180 -10
-113 0 -180 4 -180 10 0 6 67 10 180 10 113 0 180 -4 180 -10z m1480 0 c0 -7
-180 -10 -535 -10 -338 0 -535 4 -535 10 0 6 197 10 535 10 355 0 535 -3 535
-10z m1380 0 c0 -7 -195 -10 -565 -10 -370 0 -565 3 -565 10 0 7 195 10 565
10 370 0 565 -3 565 -10z m3225 -25 c2 -17 -2 -25 -11 -25 -9 0 -12 -4 -9 -10
3 -5 1 -10 -4 -10 -6 0 -11 7 -11 15 0 8 5 15 10 15 6 0 10 12 10 27 0 32 12
24 15 -12z m205 15 c6 -11 7 -20 2 -20 -6 0 -12 9 -15 20 -3 11 -3 20 -1 20 2
0 8 -9 14 -20z m-244 -17 c-7 -7 -26 7 -26 19 0 6 6 6 15 -2 9 -7 13 -15 11
-17z m293 -9 c3 -16 1 -17 -13 -5 -19 16 -21 34 -3 29 6 -3 14 -13 16 -24z
m-79 6 c0 -5 -2 -10 -4 -10 -3 0 -8 5 -11 10 -3 6 -1 10 4 10 6 0 11 -4 11
-10z m460 -10 c0 -5 -4 -10 -10 -10 -5 0 -10 5 -10 10 0 6 5 10 10 10 6 0 10
-4 10 -10z m-9944 -17 c-7 -7 -197 -5 -205 3 -2 2 44 4 104 4 60 0 105 -3 101
-7z m1019 2 c-23 -8 -125 -11 -125 -3 0 4 30 8 68 7 37 0 63 -2 57 -4z m8048
-45 c3 -11 1 -20 -4 -20 -5 0 -9 9 -9 20 0 11 2 20 4 20 2 0 6 -9 9 -20z m214
-12 c-3 -8 -6 -5 -6 6 -1 11 2 17 5 13 3 -3 4 -12 1 -19z m-240 -32 c-3 -7 0
-19 6 -25 8 -8 7 -11 -4 -11 -8 0 -16 11 -17 25 -1 14 3 25 9 25 6 0 9 -6 6
-14z m808 -16 c3 -5 1 -10 -4 -10 -6 0 -11 5 -11 10 0 6 2 10 4 10 3 0 8 -4
11 -10z m-762 -14 c4 -10 1 -13 -9 -9 -15 6 -19 23 -5 23 5 0 11 -7 14 -14z
m710 -103 c-7 -2 -19 -2 -25 0 -7 3 -2 5 12 5 14 0 19 -2 13 -5z m95 0 c-10
-2 -28 -2 -40 0 -13 2 -5 4 17 4 22 1 32 -1 23 -4z m-551 -49 c-3 -3 -12 -4
-19 -1 -8 3 -5 6 6 6 11 1 17 -2 13 -5z m-80 -20 c-3 -3 -12 -4 -19 -1 -8 3
-5 6 6 6 11 1 17 -2 13 -5z m836 -11 c-7 -2 -19 -2 -25 0 -7 3 -2 5 12 5 14 0
19 -2 13 -5z m-893 -7 c0 -2 -7 -7 -16 -10 -8 -3 -12 -2 -9 4 6 10 25 14 25 6z
m-55 -26 c-3 -5 -14 -10 -23 -9 -14 0 -13 2 3 9 27 11 27 11 20 0z m1462 -56
c-3 -3 -12 -4 -19 -1 -8 3 -5 6 6 6 11 1 17 -2 13 -5z m-117 -14 c0 -5 -2 -10
-4 -10 -3 0 -8 5 -11 10 -3 6 -1 10 4 10 6 0 11 -4 11 -10z m62 -32 c-9 -9
-15 -9 -24 0 -9 9 -7 12 12 12 19 0 21 -3 12 -12z m814 -25 c-3 -4 -22 -12
-41 -19 -37 -12 -38 1 -1 16 26 11 52 13 42 3z m-1510 -28 c-3 -9 -10 -13 -16
-10 -6 4 -5 11 3 20 15 16 22 11 13 -10z m56 1 c-5 -6 -8 -21 -7 -33 1 -13 -2
-23 -6 -23 -5 0 -5 -7 -2 -17 4 -9 2 -14 -4 -10 -7 4 -10 86 -4 104 1 1 8 0
16 -3 10 -4 12 -10 7 -18z m143 -4 c2 -24 -3 -26 -23 -13 -11 6 -10 10 4 15
16 6 16 9 4 17 -12 9 -12 10 -1 7 8 -2 15 -14 16 -26z m1335 14 c0 -2 -7 -7
-16 -10 -8 -3 -12 -2 -9 4 6 10 25 14 25 6z m-1846 -40 c7 3 19 -2 26 -11 11
-13 9 -15 -14 -15 -14 0 -29 -1 -33 -1 -5 -1 -13 9 -20 22 -11 20 -10 25 5 30
12 4 18 0 20 -12 2 -10 9 -16 16 -13z m226 24 c0 -5 -7 -10 -16 -10 -8 0 -12
5 -9 10 3 6 10 10 16 10 5 0 9 -4 9 -10z m211 -43 c-10 -9 -11 -8 -5 6 3 10 9
15 12 12 3 -3 0 -11 -7 -18z m-501 -8 c0 -5 -4 -9 -10 -9 -5 0 -10 7 -10 16 0
8 5 12 10 9 6 -3 10 -10 10 -16z m220 -31 c0 -5 -4 -8 -10 -8 -5 0 -10 10 -10
23 0 18 2 19 10 7 5 -8 10 -18 10 -22z m162 -13 c-5 -38 -29 -49 -28 -12 1 17
12 34 31 47 1 0 -1 -16 -3 -35z m-208 -9 c0 -16 -5 -31 -12 -34 -7 -2 -12 1
-12 7 0 6 -8 11 -17 12 -13 0 -14 2 -4 6 11 5 11 7 0 14 -12 8 -11 11 1 19 26
17 44 7 44 -24z m236 -8 c0 -18 -2 -20 -9 -8 -6 8 -7 18 -5 22 9 14 14 9 14
-14z m-1151 -103 c28 -14 48 -56 36 -75 -4 -6 3 -10 15 -10 11 0 28 -4 38 -9
9 -5 29 -14 45 -22 15 -7 27 -18 27 -25 0 -16 -30 -33 -48 -27 -19 7 -83 -7
-77 -16 2 -5 -1 -14 -8 -20 -8 -6 -14 -34 -16 -63 -1 -29 -7 -58 -13 -65 -6
-8 -7 -13 -1 -13 7 0 7 -16 3 -42 -15 -81 -1 -131 57 -205 36 -45 82 -77 125
-88 23 -6 29 -3 37 16 5 13 10 19 10 13 1 -7 19 -12 42 -12 28 -1 54 -10 80
-27 48 -34 104 -54 151 -55 20 0 39 -4 43 -10 3 -5 -10 -26 -28 -47 -19 -21
-32 -45 -30 -53 3 -8 -5 -1 -16 15 -12 17 -21 27 -21 22 0 -4 -15 -1 -34 7
-19 8 -59 19 -90 26 -31 6 -69 18 -85 26 -22 11 -36 12 -49 5 -23 -12 -95 18
-114 48 -7 12 -18 21 -25 21 -7 0 -13 4 -13 8 0 5 -11 22 -24 37 -14 16 -23
32 -20 36 2 4 0 10 -6 14 -11 7 -40 65 -45 92 -2 10 -4 19 -5 21 -2 1 -3 5 -5
10 -1 4 -7 20 -14 36 -6 16 -10 35 -7 42 3 7 0 15 -7 17 -9 3 -8 8 2 20 11 14
11 17 1 17 -8 0 -10 3 -7 6 4 4 -3 19 -13 35 -11 15 -16 30 -12 33 10 6 8 48
-2 65 -4 5 -2 13 4 16 8 5 7 11 -1 21 -15 18 -4 45 16 38 8 -3 15 -1 15 5 0 6
-7 11 -15 11 -8 0 -15 4 -15 9 0 14 26 32 35 23 5 -4 5 -2 1 5 -3 6 -2 14 4
18 5 3 10 15 10 26 0 10 7 19 15 19 8 0 15 5 15 10 0 13 6 13 39 -5z m807 -67
c4 -7 4 -10 -1 -6 -4 4 -21 -7 -38 -25 -28 -30 -20 -13 12 26 17 20 18 21 27
5z m24 -44 c8 -14 22 -30 32 -35 10 -5 18 -16 18 -24 0 -8 5 -15 11 -15 6 0 9
7 5 15 -3 8 -1 15 4 15 6 0 8 -14 6 -32 -2 -19 5 -45 17 -65 l19 -34 -21 -18
c-24 -21 -28 -46 -6 -38 8 4 17 2 20 -2 9 -16 -35 -19 -50 -4 -19 18 -19 14 0
-31 9 -20 19 -35 23 -32 5 3 6 -10 4 -27 -2 -18 -4 -42 -5 -54 -1 -13 -5 -23
-8 -23 -3 0 -4 -11 -1 -25 3 -18 0 -25 -11 -25 -21 0 -29 -27 -11 -34 14 -5
14 -8 -1 -22 -8 -9 -22 -13 -30 -10 -8 3 -15 2 -15 -3 0 -5 12 -12 28 -16 15
-4 21 -10 14 -12 -10 -4 -10 -8 0 -21 12 -14 10 -14 -10 -3 -20 11 -23 10 -20
-5 2 -9 -2 -19 -8 -21 -6 -2 -10 7 -9 19 3 38 -5 49 -25 38 -13 -7 -21 -7 -25
0 -3 5 -1 10 4 10 6 0 11 9 11 20 0 15 -9 22 -30 27 -16 3 -30 9 -30 14 0 5
-7 6 -15 3 -8 -4 -15 -1 -15 4 0 6 10 14 23 18 21 7 21 8 -9 18 -17 6 -38 18
-47 28 -29 29 -52 12 -55 -40 -1 -26 -7 -49 -12 -50 -6 -2 -8 -8 -4 -13 3 -5
0 -9 -6 -9 -6 0 -10 6 -8 13 3 16 -52 77 -70 77 -18 0 -52 43 -75 94 -10 23
-25 48 -33 57 -8 9 -19 30 -24 48 -8 28 -5 34 23 61 18 16 35 30 40 30 4 0 7
7 7 15 0 8 7 15 15 15 8 0 15 4 15 10 0 5 6 7 13 4 8 -3 19 1 26 9 7 10 24 13
51 10 22 -3 40 -1 40 4 0 11 50 38 63 35 4 -1 3 7 -3 18 -12 22 -1 27 17 9 7
-7 37 -12 68 -13 54 -1 70 6 39 18 -8 3 -12 10 -9 16 11 18 31 11 45 -16z m34
0 c7 -19 2 -18 -19 6 -16 17 -16 20 -3 15 9 -4 19 -13 22 -21z m-1264 -14 c0
-28 -2 -30 -21 -20 -20 11 -20 12 -3 31 23 25 24 24 24 -11z m1130 16 c0 -3
-4 -8 -10 -11 -5 -3 -10 -1 -10 4 0 6 5 11 10 11 6 0 10 -2 10 -4z m-1136 -93
c19 -19 24 -29 16 -37 -8 -8 -15 -7 -23 5 -7 8 -20 18 -29 22 -11 4 -15 12
-12 22 8 21 17 19 48 -12z m1360 -63 c7 -23 6 -22 -13 5 -24 34 -28 53 -7 33
7 -8 17 -25 20 -38z m123 35 c8 -9 13 -19 10 -22 -6 -5 -37 21 -37 31 0 10 11
6 27 -9z m113 -39 c-1 -20 -2 -20 -15 4 -19 33 -19 46 0 30 8 -7 15 -22 15
-34z m-1432 11 c1 -17 7 -38 20 -68 6 -15 15 -45 21 -66 47 -174 172 -362 278
-417 39 -20 92 -23 121 -7 21 11 91 6 78 -6 -9 -9 48 -54 64 -50 8 3 21 6 29
8 10 3 17 -6 20 -25 5 -27 31 -50 31 -28 0 11 45 32 69 32 11 0 21 7 25 15 3
8 12 15 19 15 8 0 29 16 47 36 30 33 34 35 45 20 16 -21 48 -211 44 -256 -4
-35 -4 -35 -54 -35 -27 0 -53 -4 -56 -9 -4 -5 -40 -10 -80 -12 -68 -2 -79 0
-134 31 -33 18 -89 59 -124 89 -36 31 -70 56 -76 56 -12 0 -135 96 -147 114
-9 14 -35 49 -74 102 -34 45 -58 84 -59 97 0 4 -5 11 -12 15 -6 4 -14 19 -18
34 -4 15 -13 32 -21 39 -8 6 -11 15 -9 20 3 4 -6 32 -21 61 -47 92 -72 224
-41 212 8 -3 14 -10 15 -17z m1391 -7 c6 0 11 -4 11 -10 0 -18 -43 6 -46 26
-3 18 -2 18 10 2 7 -10 18 -18 25 -18z m-100 -10 c9 -28 9 -29 -9 -20 -11 6
-20 20 -20 30 0 30 17 24 29 -10z m50 -9 c8 -15 7 -20 -8 -24 -15 -3 -18 1
-17 19 1 29 12 31 25 5z m-85 -17 c9 -3 16 -11 16 -16 0 -6 -7 -7 -16 -4 -9 3
-12 2 -9 -5 4 -6 13 -8 21 -5 9 3 18 -2 21 -12 4 -9 11 -20 17 -24 6 -4 -1 -8
-16 -8 -37 0 -83 45 -65 65 15 17 12 16 31 9z m41 -94 c3 -5 1 -10 -4 -10 -6
0 -11 5 -11 10 0 6 2 10 4 10 3 0 8 -4 11 -10z m290 -49 c10 -17 -12 -21 -25
-6 -10 12 -10 15 3 15 9 0 18 -4 22 -9z m84 -63 c0 -18 -3 -26 -6 -18 -3 8
-11 18 -17 23 -8 5 -6 10 4 17 21 13 20 14 19 -22z m-529 -128 c0 -5 -4 -10
-10 -10 -5 0 -10 5 -10 10 0 6 5 10 10 10 6 0 10 -4 10 -10z m940 -131 c0 -5
-4 -8 -9 -4 -5 3 -12 1 -16 -5 -3 -5 -11 -10 -18 -10 -6 0 -2 7 9 15 23 17 34
19 34 4z m0 -23 c0 -2 -7 -7 -16 -10 -8 -3 -12 -2 -9 4 6 10 25 14 25 6z
m-430 -26 c0 -5 5 -9 12 -7 6 1 13 -5 15 -13 2 -10 -5 -15 -23 -17 -16 0 -22
2 -15 7 10 5 8 9 -4 14 -9 3 -13 10 -10 16 8 13 25 13 25 0z m479 -43 c11 -14
5 -27 -13 -27 -6 0 -4 5 4 10 13 8 12 10 -2 10 -10 0 -18 5 -18 10 0 14 16 12
29 -3z m45 -142 c-4 -8 -8 -15 -10 -15 -2 0 -4 7 -4 15 0 8 4 15 10 15 5 0 7
-7 4 -15z m156 -205 c0 -5 -4 -10 -10 -10 -5 0 -10 5 -10 10 0 6 5 10 10 10 6
0 10 -4 10 -10z m1135 0 c3 -5 -1 -10 -11 -10 -14 0 -14 -3 -4 -15 7 -9 11
-18 8 -20 -10 -10 -28 23 -22 39 7 18 20 21 29 6z m-1203 -92 c-9 -9 -12 -7
-12 12 0 19 3 21 12 12 9 -9 9 -15 0 -24z m40 10 c-7 -7 -12 -8 -12 -2 0 14
12 26 19 19 2 -3 -1 -11 -7 -17z m-172 3 c0 -5 -7 -11 -14 -14 -10 -4 -13 -1
-9 9 6 15 23 19 23 5z m160 -37 c0 -8 -5 -12 -10 -9 -6 4 -8 11 -5 16 9 14 15
11 15 -7z m-93 -21 c5 -14 -45 -14 -54 0 -3 5 -1 7 5 3 6 -3 14 -2 17 4 8 13
27 8 32 -7z m-167 -13 c0 -11 -2 -20 -4 -20 -2 0 -6 9 -9 20 -3 11 -1 20 4 20
5 0 9 -9 9 -20z m160 -52 l0 -43 -19 30 c-17 27 -17 31 -3 43 22 17 22 17 22
-30z m33 27 c-3 -9 -8 -14 -10 -11 -3 3 -2 9 2 15 9 16 15 13 8 -4z m697 5 c0
-5 -2 -10 -4 -10 -3 0 -8 5 -11 10 -3 6 -1 10 4 10 6 0 11 -4 11 -10z m-649
-47 c-12 -20 -14 -14 -5 12 4 9 9 14 11 11 3 -2 0 -13 -6 -23z m-204 -15 c-3
-8 -6 -5 -6 6 -1 11 2 17 5 13 3 -3 4 -12 1 -19z m171 -24 c2 -23 -1 -33 -8
-29 -12 7 -14 65 -2 65 4 0 9 -16 10 -36z m-68 12 c0 -3 -4 -8 -10 -11 -5 -3
-10 -1 -10 4 0 6 5 11 10 11 6 0 10 -2 10 -4z m129 -23 c-2 -24 -2 -25 -6 -5
-3 13 -9 19 -15 16 -7 -4 -8 -2 -4 4 13 21 26 13 25 -15z m801 12 c0 -8 -2
-15 -4 -15 -2 0 -6 7 -10 15 -3 8 -1 15 4 15 6 0 10 -7 10 -15z m-740 -59 c0
-8 -4 -17 -9 -20 -10 -7 -23 19 -14 28 11 11 23 6 23 -8z m39 -28 c-9 -16 -14
-19 -17 -9 -2 7 2 17 9 22 20 13 21 11 8 -13z m289 -43 c-3 -3 -9 2 -12 12 -6
14 -5 15 5 6 7 -7 10 -15 7 -18z m-355 -115 c3 -11 1 -18 -4 -14 -5 3 -9 12
-9 20 0 20 7 17 13 -6z m888 -12 l1 -23 6 23 c7 21 8 22 30 7 15 -12 22 -25
21 -48 -1 -20 -3 -24 -6 -12 -10 48 -14 51 -29 23 -15 -29 -63 -40 -65 -15 -1
6 -4 1 -9 -13 -4 -14 -5 -37 -3 -51 3 -15 -1 -30 -11 -38 -9 -8 -16 -10 -16
-5 0 5 -8 -1 -18 -13 -24 -30 -112 -36 -122 -9 -5 17 -8 16 -23 -7 -21 -32
-22 -43 -2 -27 23 19 29 -9 11 -51 -14 -33 -13 -36 5 -50 18 -13 18 -14 2 -20
-11 -4 -23 0 -30 10 -11 14 -12 14 -13 1 0 -11 -4 -9 -12 5 -7 11 -13 26 -14
33 -3 20 -25 42 -35 36 -18 -11 -7 12 21 45 22 26 28 40 23 63 -4 19 0 35 11
47 9 10 13 21 9 26 -5 4 0 5 9 2 10 -3 20 -1 24 4 3 6 15 9 25 6 10 -3 17 0
16 7 -1 6 4 10 11 8 7 -1 15 4 18 13 5 13 8 13 21 -1 13 -13 17 -12 32 5 13
15 28 20 54 18 25 -2 37 1 37 10 0 23 20 14 21 -9z m-2521 -178 c0 -5 -5 -10
-11 -10 -5 0 -7 5 -4 10 3 6 8 10 11 10 2 0 4 -4 4 -10z m-50 -14 c0 -3 -4 -8
-10 -11 -5 -3 -10 -1 -10 4 0 6 5 11 10 11 6 0 10 -2 10 -4z m85 -6 c3 -5 2
-10 -4 -10 -5 0 -13 5 -16 10 -3 6 -2 10 4 10 5 0 13 -4 16 -10z m-45 -20
c-12 -22 -25 -26 -36 -9 -7 12 12 29 34 29 10 0 10 -5 2 -20z m-120 0 c0 -5
-2 -10 -4 -10 -3 0 -8 5 -11 10 -3 6 -1 10 4 10 6 0 11 -4 11 -10z m210 -11
c0 -5 -4 -9 -10 -9 -5 0 -10 7 -10 16 0 8 5 12 10 9 6 -3 10 -10 10 -16z
m-260 -9 c0 -5 -2 -10 -4 -10 -3 0 -8 5 -11 10 -3 6 -1 10 4 10 6 0 11 -4 11
-10z m202 -10 c7 -11 19 -20 26 -20 10 0 9 -4 -3 -16 -12 -12 -19 -13 -29 -5
-7 6 -21 9 -29 5 -29 -11 -37 6 -15 31 26 30 34 31 50 5z m-262 0 c0 -5 -2
-10 -4 -10 -3 0 -8 5 -11 10 -3 6 -1 10 4 10 6 0 11 -4 11 -10z m190 0 c0 -5
-4 -10 -9 -10 -6 0 -13 5 -16 10 -3 6 1 10 9 10 9 0 16 -4 16 -10z m145 -10
c3 -5 1 -10 -4 -10 -6 0 -11 5 -11 10 0 6 2 10 4 10 3 0 8 -4 11 -10z m-294
-13 c-1 -12 -15 -9 -19 4 -3 6 1 10 8 8 6 -3 11 -8 11 -12z m148 -20 c22 -15
41 -23 41 -18 0 5 15 7 33 6 17 -1 36 3 40 9 6 7 7 4 3 -6 -3 -10 -1 -18 4
-18 6 0 10 -7 10 -16 0 -13 -8 -15 -35 -12 -29 3 -35 1 -35 -14 0 -10 7 -18
18 -18 15 -1 15 -2 -3 -17 -19 -15 -13 -14 26 1 9 4 30 -5 53 -23 35 -28 36
-30 15 -36 -15 -5 -18 -9 -9 -15 7 -4 9 -13 5 -19 -5 -9 -10 -9 -21 0 -8 6
-17 9 -20 7 -3 -3 14 -22 37 -42 24 -20 37 -36 29 -36 -7 0 -21 6 -29 14 -20
18 -85 36 -99 27 -18 -11 2 -31 34 -35 42 -5 64 -16 64 -31 0 -15 27 -28 41
-19 13 8 59 -4 59 -16 0 -5 -9 -12 -20 -15 -21 -7 -18 -27 3 -24 7 1 19 1 27
0 33 -3 -20 -28 -54 -25 -28 2 -34 -1 -29 -13 5 -13 1 -15 -20 -11 -39 7 -33
-5 14 -31 46 -26 47 -41 0 -16 -34 17 -43 3 -11 -17 29 -18 25 -25 -19 -32
-29 -4 -40 -12 -44 -28 l-6 -22 -24 22 c-24 23 -45 19 -26 -5 9 -10 8 -13 -5
-13 -10 0 -16 9 -16 25 0 19 -4 23 -17 18 -15 -5 -16 -3 -5 8 15 16 16 29 2
29 -6 0 -16 5 -23 10 -7 6 -21 17 -32 25 -19 14 -19 14 8 15 15 0 27 4 27 9 0
21 -13 41 -26 41 -8 0 -14 7 -14 15 0 8 -15 29 -32 47 -34 35 -49 84 -22 74
19 -7 18 4 -3 20 -16 12 -15 13 10 14 15 0 27 5 27 10 0 6 -11 10 -25 10 -29
0 -32 8 -7 26 16 13 15 14 -7 20 -23 7 -23 8 -5 22 10 8 15 16 9 18 -36 15
-40 23 -20 38 20 15 20 15 0 16 -11 0 -31 9 -45 20 -24 19 -24 20 -4 20 11 0
28 8 37 18 25 27 86 22 136 -11z m-249 -1 c0 -3 -4 -8 -10 -11 -5 -3 -10 -1
-10 4 0 6 5 11 10 11 6 0 10 -2 10 -4z m-5 -46 c3 -5 1 -10 -4 -10 -6 0 -11 5
-11 10 0 6 2 10 4 10 3 0 8 -4 11 -10z m95 -15 c10 -13 9 -15 -8 -15 -22 0
-36 13 -25 24 10 10 20 7 33 -9z m2460 -5 c11 -11 20 -24 20 -29 0 -5 13 -14
29 -19 21 -7 32 -21 41 -49 7 -21 20 -47 29 -58 21 -26 41 -62 41 -74 0 -5
-12 -11 -27 -14 -20 -4 -35 1 -52 16 -21 19 -23 20 -17 3 5 -15 3 -17 -11 -11
-10 4 -27 7 -38 7 -11 -1 -30 6 -43 14 -12 8 -26 12 -31 9 -5 -3 -14 9 -20 25
-6 18 -6 30 0 30 5 0 9 12 9 27 0 23 2 25 13 11 6 -8 21 -18 32 -22 20 -6 20
-6 0 9 -17 13 -18 17 -5 25 12 8 12 10 -4 16 -26 10 -41 55 -21 66 8 5 15 16
15 23 0 21 16 19 40 -5z m-2695 0 c3 -5 2 -10 -4 -10 -5 0 -13 5 -16 10 -3 6
-2 10 4 10 5 0 13 -4 16 -10z m180 -10 c3 -5 1 -10 -4 -10 -6 0 -11 5 -11 10
0 6 2 10 4 10 3 0 8 -4 11 -10z m375 -5 c0 -8 -2 -15 -4 -15 -2 0 -6 7 -10 15
-3 8 -1 15 4 15 6 0 10 -7 10 -15z m50 -25 c0 -5 -4 -10 -9 -10 -6 0 -13 5
-16 10 -3 6 1 10 9 10 9 0 16 -4 16 -10z m-350 -42 c0 -13 -23 -5 -28 10 -2 7
2 10 12 6 9 -3 16 -11 16 -16z m2290 4 c0 -13 -12 -22 -22 -16 -10 6 -1 24 13
24 5 0 9 -4 9 -8z m-2335 -12 c3 -5 -1 -10 -9 -10 -8 0 -18 5 -21 10 -3 6 1
10 9 10 8 0 18 -4 21 -10z m405 -30 c0 -5 -7 -10 -15 -10 -8 0 -15 5 -15 10 0
6 7 10 15 10 8 0 15 -4 15 -10z m-5 -30 c-3 -5 -14 -10 -23 -10 -15 0 -15 2
-2 10 20 13 33 13 25 0z m-347 -22 c3 -14 0 -15 -22 -5 -32 15 -33 25 -4 23
13 0 24 -9 26 -18z m2442 -106 c0 -15 -2 -15 -10 -2 -13 20 -13 33 0 25 6 -3
10 -14 10 -23z m50 8 c19 -19 19 -20 1 -20 -10 0 -21 9 -24 20 -3 11 -3 20 -1
20 2 0 13 -9 24 -20z m35 2 c-3 -3 -11 0 -18 7 -9 10 -8 11 6 5 10 -3 15 -9
12 -12z m-35 -72 c0 -5 -2 -10 -4 -10 -3 0 -8 5 -11 10 -3 6 -1 10 4 10 6 0
11 -4 11 -10z m-2130 -9 c0 -6 -4 -13 -10 -16 -5 -3 -10 1 -10 9 0 9 5 16 10
16 6 0 10 -4 10 -9z m25 -31 c3 -5 1 -10 -4 -10 -6 0 -11 5 -11 10 0 6 2 10 4
10 3 0 8 -4 11 -10z m65 -10 c0 -5 -4 -10 -10 -10 -5 0 -10 5 -10 10 0 6 5 10
10 10 6 0 10 -4 10 -10z m-105 -59 c-3 -11 0 -23 6 -27 8 -4 9 -3 5 4 -10 17
9 15 23 -2 9 -11 8 -15 -5 -20 -21 -8 -54 2 -54 16 0 5 -7 8 -15 4 -26 -10
-16 12 13 27 15 8 28 15 30 16 2 1 1 -8 -3 -18z m-77 -30 c-7 -12 -16 -21 -21
-21 -8 0 0 17 18 36 16 18 18 8 3 -15z m207 20 c3 -6 -3 -9 -14 -8 -11 0 -17
5 -15 9 7 11 22 10 29 -1z m-133 -55 c24 -8 55 -16 70 -18 24 -3 25 -5 13 -22
-13 -17 -15 -17 -30 -2 -26 26 -89 40 -124 28 -36 -13 -42 0 -8 16 29 14 30
14 79 -2z m-122 -5 c0 -13 -29 -35 -37 -27 -3 3 -1 6 6 6 8 0 11 7 7 15 -3 9
0 15 9 15 8 0 15 -4 15 -9z m210 -71 c0 -5 -2 -10 -4 -10 -3 0 -8 5 -11 10 -3
6 -1 10 4 10 6 0 11 -4 11 -10z m-90 -20 c0 -5 -2 -10 -4 -10 -3 0 -8 5 -11
10 -3 6 -1 10 4 10 6 0 11 -4 11 -10z m145 -28 c-3 -3 -11 0 -18 7 -9 10 -8
11 6 5 10 -3 15 -9 12 -12z m-55 -33 c0 -6 -4 -7 -10 -4 -5 3 -10 11 -10 16 0
6 5 7 10 4 6 -3 10 -11 10 -16z m2381 -290 c-12 -11 -21 -23 -22 -27 -1 -4 -2
-25 -3 -46 -3 -41 -25 -66 -58 -66 -24 0 -23 17 2 25 14 4 20 15 20 35 0 15 7
30 15 34 8 3 15 15 15 27 0 28 43 75 48 53 2 -9 -6 -25 -17 -35z m-81 -78
c-10 -20 -30 -37 -30 -26 0 11 25 45 33 45 4 0 3 -9 -3 -19z"/>
<path d="M9776 12932 c-3 -6 -1 -14 5 -17 15 -10 25 3 12 16 -7 7 -13 7 -17 1z"/>
<path d="M10045 12290 c4 -6 11 -8 16 -5 14 9 11 15 -7 15 -8 0 -12 -5 -9 -10z"/>
<path d="M9890 12006 c0 -2 7 -7 16 -10 8 -3 12 -2 9 4 -6 10 -25 14 -25 6z"/>
<path d="M9818 11988 c5 -5 16 -8 23 -6 8 3 3 7 -10 11 -17 4 -21 3 -13 -5z"/>
<path d="M9792 11966 c7 -8 16 -12 21 -9 11 7 -2 23 -19 23 -12 0 -12 -2 -2
-14z"/>
<path d="M9945 11690 c3 -5 8 -10 11 -10 2 0 4 5 4 10 0 6 -5 10 -11 10 -5 0
-7 -4 -4 -10z"/>
<path d="M11990 10295 c0 -8 7 -15 15 -15 9 0 12 6 9 15 -4 8 -10 15 -15 15
-5 0 -9 -7 -9 -15z"/>
<path d="M9615 10190 c3 -5 11 -10 16 -10 6 0 7 5 4 10 -3 6 -11 10 -16 10 -6
0 -7 -4 -4 -10z"/>
<path d="M9516 10156 c7 -17 44 -22 44 -6 0 6 -4 10 -9 10 -5 0 -17 3 -25 6
-12 5 -15 2 -10 -10z"/>
<path d="M9445 10150 c3 -5 11 -10 16 -10 6 0 7 5 4 10 -3 6 -11 10 -16 10 -6
0 -7 -4 -4 -10z"/>
<path d="M9520 10121 c-44 -8 -26 -22 20 -16 20 3 37 0 41 -7 5 -7 11 -9 15
-5 9 8 -15 37 -30 36 -6 -1 -27 -4 -46 -8z"/>
<path d="M9650 10120 c0 -5 5 -10 10 -10 6 0 10 5 10 10 0 6 -4 10 -10 10 -5
0 -10 -4 -10 -10z"/>
<path d="M9580 10044 c0 -9 24 -30 43 -37 17 -6 17 -6 0 18 -16 22 -43 34 -43
19z"/>
<path d="M9690 10020 c0 -5 7 -10 16 -10 8 0 12 5 9 10 -3 6 -10 10 -16 10 -5
0 -9 -4 -9 -10z"/>
<path d="M9656 10011 c-3 -5 1 -14 8 -20 18 -15 28 0 10 16 -7 7 -15 9 -18 4z"/>
<path d="M9541 9994 c6 -7 16 -11 24 -8 7 3 28 -2 47 -11 31 -16 32 -16 16 0
-20 21 -104 40 -87 19z"/>
<path d="M9650 9972 c0 -5 7 -13 16 -16 10 -4 14 -1 12 6 -5 15 -28 23 -28 10z"/>
<path d="M9571 9943 c3 -32 -1 -34 -31 -18 -17 9 -35 13 -40 10 -13 -8 0 -37
14 -32 6 2 19 0 28 -4 10 -5 19 -5 22 0 3 5 16 7 29 3 20 -5 21 -4 7 13 -11
14 -12 19 -2 22 20 7 14 23 -9 23 -13 0 -20 -6 -18 -17z"/>
<path d="M9480 9880 c0 -6 4 -9 9 -5 6 3 15 -4 21 -15 6 -11 17 -20 25 -20 8
0 15 -7 15 -16 0 -8 -4 -12 -10 -9 -5 3 -10 1 -10 -5 0 -6 10 -8 27 -4 23 6
25 4 21 -13 -3 -13 1 -24 13 -32 26 -15 24 -28 -6 -35 -39 -10 -29 -25 13 -19
44 7 62 20 39 29 -17 6 -24 34 -9 34 4 0 18 -7 30 -16 13 -9 26 -13 29 -10 3
3 -2 8 -11 12 -27 10 -18 27 11 19 23 -5 25 -4 14 9 -8 9 -20 16 -27 16 -8 0
-14 4 -14 8 0 5 -11 15 -25 22 -43 23 -28 35 18 15 10 -4 21 -5 24 -1 9 9 -1
16 -33 22 -15 3 -31 7 -36 10 -5 3 -16 0 -24 -7 -11 -9 -20 -9 -37 -1 -39 19
-67 24 -67 12z m138 -91 c-2 -6 -8 -10 -13 -10 -5 0 -11 4 -13 10 -2 6 4 11
13 11 9 0 15 -5 13 -11z"/>
<path d="M9770 9830 c0 -5 5 -10 10 -10 6 0 10 5 10 10 0 6 -4 10 -10 10 -5 0
-10 -4 -10 -10z"/>
<path d="M9735 9810 c4 -6 11 -8 16 -5 14 9 11 15 -7 15 -8 0 -12 -5 -9 -10z"/>
<path d="M11830 9931 c0 -5 5 -13 10 -16 6 -3 10 -2 10 4 0 5 -4 13 -10 16 -5
3 -10 2 -10 -4z"/>
<path d="M11620 13720 c-8 -5 -10 -10 -5 -10 6 0 17 5 25 10 8 5 11 10 5 10
-5 0 -17 -5 -25 -10z"/>
<path d="M10692 13420 c0 -14 2 -19 5 -12 2 6 2 18 0 25 -3 6 -5 1 -5 -13z"/>
<path d="M10690 13370 c-8 -5 -11 -12 -7 -16 4 -4 13 -2 19 4 15 15 7 24 -12
12z"/>
<path d="M10574 13312 c4 -12 2 -30 -4 -42 -9 -16 -8 -20 5 -20 8 0 15 -8 16
-17 1 -10 6 -3 12 16 8 26 8 36 -1 39 -7 2 -12 10 -12 17 0 8 -5 17 -11 21 -7
4 -9 0 -5 -14z"/>
<path d="M10721 13253 c0 -4 4 -17 8 -27 6 -15 9 -16 13 -5 3 8 -1 20 -8 27
-8 7 -14 9 -13 5z"/>
<path d="M10705 13200 c3 -5 8 -10 11 -10 2 0 4 5 4 10 0 6 -5 10 -11 10 -5 0
-7 -4 -4 -10z"/>
<path d="M10596 13173 c10 -40 14 -41 14 -5 0 18 -5 32 -10 32 -6 0 -8 -11 -4
-27z"/>
<path d="M10550 13181 c0 -6 4 -12 9 -15 4 -3 11 -20 15 -37 9 -47 18 -29 10
20 -4 25 -12 41 -20 41 -8 0 -14 -4 -14 -9z"/>
<path d="M10630 13170 c0 -11 4 -20 9 -20 6 0 9 9 8 20 -1 11 -5 20 -9 20 -4
0 -8 -9 -8 -20z"/>
<path d="M10488 13157 c-7 -38 10 -104 28 -104 18 0 18 5 -1 23 -8 9 -15 21
-15 27 1 17 50 -45 50 -63 0 -8 -5 -22 -10 -30 -8 -12 -10 -11 -10 7 0 33 -19
38 -30 8 -13 -33 -13 -35 2 -35 18 0 47 -31 42 -45 -4 -9 3 -12 20 -11 14 0
26 7 26 14 0 6 -3 11 -7 11 -22 -4 -25 3 -7 15 14 11 21 11 26 3 6 -9 10 -9
17 1 7 11 9 11 14 -2 4 -9 4 -24 1 -33 -4 -13 1 -10 17 7 15 17 20 19 16 8
-10 -28 9 -21 22 8 11 24 10 26 -9 21 -11 -3 -20 -1 -20 4 0 5 11 9 25 9 14 0
25 -5 25 -11 0 -5 5 -7 10 -4 6 3 10 13 10 21 0 8 -4 12 -10 9 -5 -3 -10 1
-10 9 0 19 -17 21 -23 4 -2 -7 -2 -1 0 15 3 15 0 27 -6 27 -6 0 -11 -9 -11
-20 0 -11 -7 -20 -16 -20 -8 0 -13 4 -10 9 8 12 -3 41 -15 41 -5 0 -7 -10 -4
-23 4 -15 1 -28 -9 -36 -13 -11 -16 -11 -16 2 0 8 6 17 12 19 9 3 8 9 -4 21
-21 22 -28 21 -26 0 2 -33 -2 -54 -10 -49 -5 3 -9 24 -10 48 -1 23 -4 50 -7
60 -6 18 -44 21 -46 3 -1 -5 -5 6 -8 25 l-7 35 -6 -28z"/>
<path d="M10720 13046 c0 -9 5 -16 10 -16 6 0 10 4 10 9 0 6 -4 13 -10 16 -5
3 -10 -1 -10 -9z"/>
<path d="M10521 12957 c-1 -10 -5 -15 -11 -12 -5 3 -10 2 -10 -4 0 -5 5 -13
10 -16 12 -7 24 19 17 37 -3 8 -6 6 -6 -5z"/>
<path d="M10367 12953 c-4 -3 -7 -11 -7 -17 0 -6 5 -5 12 2 6 6 9 14 7 17 -3
3 -9 2 -12 -2z"/>
<path d="M10440 12910 c0 -5 7 -10 16 -10 8 0 12 5 9 10 -3 6 -10 10 -16 10
-5 0 -9 -4 -9 -10z"/>
<path d="M10650 12905 c-10 -13 -11 -18 -1 -28 7 -7 12 -7 11 -2 -5 24 1 37
15 31 8 -3 15 -1 15 4 0 15 -26 12 -40 -5z"/>
<path d="M10580 12860 c0 -5 5 -10 10 -10 6 0 10 5 10 10 0 6 -4 10 -10 10 -5
0 -10 -4 -10 -10z"/>
<path d="M11805 12850 c-3 -11 -12 -20 -20 -20 -7 0 -16 -6 -18 -12 -3 -8 -6
-5 -6 5 -1 25 -21 11 -21 -14 0 -20 5 -20 178 -17 163 3 315 13 249 16 -16 1
-38 7 -50 14 -26 14 -114 18 -139 6 -11 -6 -18 -5 -18 2 0 14 -27 13 -33 -2
-4 -8 -6 -7 -6 4 -1 16 -16 19 -37 5 -7 -4 -15 1 -18 10 -6 15 -8 15 -16 3 -8
-13 -10 -12 -10 3 0 24 -27 22 -35 -3z"/>
<path d="M11700 12805 c0 -8 8 -15 18 -14 10 0 12 3 4 6 -6 2 -10 9 -6 14 3 5
0 9 -5 9 -6 0 -11 -7 -11 -15z"/>
<path d="M11730 12760 l-205 -6 210 -1 c116 -1 230 2 255 6 l45 8 -50 0 c-27
-1 -142 -4 -255 -7z"/>
<path d="M12075 12760 c-16 -7 -17 -9 -3 -9 9 -1 20 4 23 9 7 11 7 11 -20 0z"/>
<path d="M12283 12749 c4 -13 7 -27 7 -31 0 -5 7 -8 15 -8 10 0 15 -10 15 -30
0 -17 6 -33 13 -35 6 -2 1734 -6 3840 -9 l3827 -5 0 60 0 61 -3840 -5 c-3430
-4 -3842 -3 -3861 11 -21 15 -22 14 -16 -9z"/>
<path d="M12240 12726 c0 -14 5 -26 10 -26 6 0 10 9 10 19 0 11 -4 23 -10 26
-6 4 -10 -5 -10 -19z"/>
<path d="M12062 12714 c4 -21 22 -23 26 -1 2 10 -3 17 -13 17 -10 0 -15 -6
-13 -16z"/>
<path d="M10523 12713 c9 -2 25 -2 35 0 9 3 1 5 -18 5 -19 0 -27 -2 -17 -5z"/>
<path d="M12170 12699 c0 -5 5 -7 10 -4 6 3 10 8 10 11 0 2 -4 4 -10 4 -5 0
-10 -5 -10 -11z"/>
<path d="M11085 12693 c-115 -2 -213 -7 -217 -11 -4 -4 95 -6 220 -4 128 1
231 7 236 12 7 7 3 9 -9 8 -11 -2 -114 -4 -230 -5z"/>
<path d="M12261 12691 c-7 -5 -11 -15 -9 -22 3 -10 8 -7 17 9 13 24 12 26 -8
13z"/>
<path d="M12025 12671 l-30 -7 33 -5 c22 -4 32 -2 32 8 0 7 -1 12 -2 12 -2 -1
-16 -4 -33 -8z"/>
<path d="M12276 12630 c-21 -52 -46 -219 -61 -402 -6 -75 -1 -94 23 -79 13 8
46 166 58 276 9 89 11 245 3 245 -4 0 -14 -18 -23 -40z"/>
<path d="M12122 12609 c-13 -5 -20 -13 -17 -19 10 -15 35 -12 35 5 0 8 7 15
15 15 8 0 15 -4 15 -10 0 -5 11 -10 25 -10 31 0 33 16 3 24 -30 8 -48 7 -76
-5z"/>
<path d="M10778 12593 c7 -3 16 -2 19 1 4 3 -2 6 -13 5 -11 0 -14 -3 -6 -6z"/>
<path d="M10823 12593 c9 -2 23 -2 30 0 6 3 -1 5 -18 5 -16 0 -22 -2 -12 -5z"/>
<path d="M10928 12593 c7 -3 16 -2 19 1 4 3 -2 6 -13 5 -11 0 -14 -3 -6 -6z"/>
<path d="M10968 12593 c6 -2 18 -2 25 0 6 3 1 5 -13 5 -14 0 -19 -2 -12 -5z"/>
<path d="M10698 12583 c7 -3 16 -2 19 1 4 3 -2 6 -13 5 -11 0 -14 -3 -6 -6z"/>
<path d="M12338 12515 c-2 -19 -1 -40 2 -45 5 -9 3708 -14 7163 -10 l497 0 0
45 0 45 -3829 0 -3829 0 -4 -35z"/>
<path d="M12137 12503 c-6 -11 -1 -72 6 -80 4 -3 7 8 7 25 0 16 3 37 6 46 6
16 -11 23 -19 9z"/>
<path d="M12132 12390 c0 -14 2 -19 5 -12 2 6 2 18 0 25 -3 6 -5 1 -5 -13z"/>
<path d="M10686 12376 c3 -9 13 -16 22 -16 8 0 13 1 11 3 -2 1 -12 9 -22 16
-15 12 -17 12 -11 -3z"/>
<path d="M10875 12330 c3 -5 13 -10 21 -10 8 0 14 5 14 10 0 6 -9 10 -21 10
-11 0 -17 -4 -14 -10z"/>
<path d="M14566 12330 c-2078 -5 -2229 -6 -2232 -22 -1 -9 5 -19 13 -22 13 -5
1250 -6 6441 -6 l1212 0 0 28 0 27 -1603 0 c-881 0 -2605 -2 -3831 -5z"/>
<path d="M10440 12320 c0 -5 7 -7 15 -4 8 4 15 8 15 10 0 2 -7 4 -15 4 -8 0
-15 -4 -15 -10z"/>
<path d="M10960 12270 c0 -5 5 -10 10 -10 6 0 10 5 10 10 0 6 -4 10 -10 10 -5
0 -10 -4 -10 -10z"/>
<path d="M10156 12203 c10 -43 18 -50 24 -23 8 31 2 50 -16 50 -11 0 -13 -7
-8 -27z"/>
<path d="M10206 12212 c-2 -4 7 -12 20 -19 13 -6 24 -7 24 -2 0 12 -38 31 -44
21z"/>
<path d="M10255 12210 c3 -5 12 -7 20 -3 21 7 19 13 -6 13 -11 0 -18 -4 -14
-10z"/>
<path d="M10341 12194 c-6 -15 -9 -29 -7 -32 3 -2 10 8 16 23 6 15 9 29 7 31
-2 2 -9 -8 -16 -22z"/>
<path d="M10272 12181 c4 -13 18 -16 19 -4 0 4 -5 9 -11 12 -7 2 -11 -2 -8 -8z"/>
<path d="M12350 12120 c0 -6 6 -13 13 -15 6 -2 1728 -6 3825 -9 3776 -5 3812
-5 3812 14 0 20 -38 20 -3825 20 -2621 0 -3825 -3 -3825 -10z"/>
<path d="M10120 12095 c0 -8 4 -15 8 -15 5 0 14 -10 20 -22 10 -23 10 -23 8 2
-3 30 -13 50 -27 50 -5 0 -9 -7 -9 -15z"/>
<path d="M12082 12055 c0 -16 2 -22 5 -12 2 9 2 23 0 30 -3 6 -5 -1 -5 -18z"/>
<path d="M10107 12043 c-8 -8 11 -43 23 -43 6 0 10 5 10 11 0 14 -26 40 -33
32z"/>
<path d="M10220 12010 c0 -5 5 -10 11 -10 5 0 7 5 4 10 -3 6 -8 10 -11 10 -2
0 -4 -4 -4 -10z"/>
<path d="M10380 12000 c0 -5 5 -10 11 -10 5 0 7 5 4 10 -3 6 -8 10 -11 10 -2
0 -4 -4 -4 -10z"/>
<path d="M11711 11914 c0 -11 3 -14 6 -6 3 7 2 16 -1 19 -3 4 -6 -2 -5 -13z"/>
<path d="M12470 11907 c0 -7 6 -20 13 -29 11 -15 330 -17 3765 -22 l3752 -6 0
35 0 35 -3765 0 c-3096 0 -3765 -2 -3765 -13z"/>
<path d="M10450 11889 c0 -5 5 -7 10 -4 6 3 10 8 10 11 0 2 -4 4 -10 4 -5 0
-10 -5 -10 -11z"/>
<path d="M11775 11880 c3 -5 8 -10 11 -10 2 0 4 5 4 10 0 6 -5 10 -11 10 -5 0
-7 -4 -4 -10z"/>
<path d="M10480 11870 c0 -5 5 -10 11 -10 5 0 7 5 4 10 -3 6 -8 10 -11 10 -2
0 -4 -4 -4 -10z"/>
<path d="M10823 11845 c0 -8 4 -12 9 -9 4 3 8 9 8 15 0 5 -4 9 -8 9 -5 0 -9
-7 -9 -15z"/>
<path d="M10778 11843 c7 -3 16 -2 19 1 4 3 -2 6 -13 5 -11 0 -14 -3 -6 -6z"/>
<path d="M10450 11830 c0 -5 4 -10 9 -10 6 0 13 5 16 10 3 6 -1 10 -9 10 -9 0
-16 -4 -16 -10z"/>
<path d="M10710 11753 c0 -8 5 -13 12 -11 18 6 21 25 3 25 -8 0 -15 -7 -15
-14z"/>
<path d="M10820 11736 c0 -2 8 -10 18 -17 15 -13 16 -12 3 4 -13 16 -21 21
-21 13z"/>
<path d="M11020 11730 c0 -6 7 -10 15 -10 8 0 15 2 15 4 0 2 -7 6 -15 10 -8 3
-15 1 -15 -4z"/>
<path d="M12612 11712 c-33 -3 -33 -4 -16 -23 17 -19 75 -19 3711 -19 l3693 0
0 26 0 26 -3677 -4 c-2023 -1 -3693 -4 -3711 -6z"/>
<path d="M10970 11700 c0 -6 6 -10 14 -10 8 0 19 -12 25 -27 10 -28 10 -28 8
6 -2 27 -7 35 -24 37 -13 2 -23 -1 -23 -6z"/>
<path d="M11050 11699 c0 -5 5 -7 10 -4 6 3 10 8 10 11 0 2 -4 4 -10 4 -5 0
-10 -5 -10 -11z"/>
<path d="M11080 11659 c0 -5 5 -7 10 -4 6 3 10 8 10 11 0 2 -4 4 -10 4 -5 0
-10 -5 -10 -11z"/>
<path d="M11041 11614 c-7 -8 -11 -17 -10 -18 8 -7 49 14 49 24 0 15 -23 12
-39 -6z"/>
<path d="M11610 11601 l-25 -7 28 -6 c19 -4 27 -1 27 8 0 8 -1 14 -2 13 -2 -1
-14 -4 -28 -8z"/>
<path d="M13585 11510 l-900 -5 975 -4 c536 -2 995 -5 1020 -6 59 -4 232 6
225 13 -7 7 -298 8 -1320 2z"/>
<path d="M15240 11510 c-252 -4 -147 -6 460 -10 1155 -7 4300 -6 4300 1 0 4
-57 8 -127 11 -175 6 -4228 4 -4633 -2z"/>
<path d="M4768 11503 c6 -2 18 -2 25 0 6 3 1 5 -13 5 -14 0 -19 -2 -12 -5z"/>
<path d="M4893 11503 c26 -2 68 -2 95 0 26 2 4 3 -48 3 -52 0 -74 -1 -47 -3z"/>
<path d="M5128 11503 c6 -2 18 -2 25 0 6 3 1 5 -13 5 -14 0 -19 -2 -12 -5z"/>
<path d="M5203 11503 c15 -2 39 -2 55 0 15 2 2 4 -28 4 -30 0 -43 -2 -27 -4z"/>
<path d="M7088 11503 c6 -2 18 -2 25 0 6 3 1 5 -13 5 -14 0 -19 -2 -12 -5z"/>
<path d="M11415 11450 c3 -5 8 -10 11 -10 2 0 4 5 4 10 0 6 -5 10 -11 10 -5 0
-7 -4 -4 -10z"/>
<path d="M11295 11410 c-3 -5 -1 -10 4 -10 6 0 11 5 11 10 0 6 -2 10 -4 10 -3
0 -8 -4 -11 -10z"/>
<path d="M11227 11383 c-4 -3 -7 -11 -7 -17 0 -6 5 -5 12 2 6 6 9 14 7 17 -3
3 -9 2 -12 -2z"/>
<path d="M11126 11365 c4 -8 10 -12 15 -9 14 8 10 24 -6 24 -9 0 -12 -6 -9
-15z"/>
<path d="M11185 11330 c-10 -11 -13 -20 -7 -20 7 0 15 -1 19 -2 3 -2 7 7 8 20
2 27 2 27 -20 2z"/>
<path d="M11266 11314 c-4 -10 -1 -14 6 -12 15 5 23 28 10 28 -5 0 -13 -7 -16
-16z"/>
<path d="M11370 11320 c0 -5 5 -10 11 -10 5 0 7 5 4 10 -3 6 -8 10 -11 10 -2
0 -4 -4 -4 -10z"/>
<path d="M11080 11310 c0 -5 5 -10 11 -10 5 0 7 5 4 10 -3 6 -8 10 -11 10 -2
0 -4 -4 -4 -10z"/>
<path d="M11220 11305 c0 -8 5 -15 10 -15 6 0 10 7 10 15 0 8 -4 15 -10 15 -5
0 -10 -7 -10 -15z"/>
<path d="M11302 11293 c2 -9 9 -18 17 -21 9 -3 11 0 6 8 -4 7 -2 16 6 21 10 6
8 9 -9 9 -17 0 -23 -5 -20 -17z"/>
<path d="M11155 11290 c3 -5 14 -10 23 -10 15 0 15 2 2 10 -20 13 -33 13 -25
0z"/>
<path d="M11387 11283 c-4 -3 -7 -11 -7 -17 0 -6 5 -5 12 2 6 6 9 14 7 17 -3
3 -9 2 -12 -2z"/>
<path d="M11134 11259 c-3 -6 -1 -16 5 -22 8 -8 11 -5 11 11 0 24 -5 28 -16
11z"/>
<path d="M11871 11254 c0 -11 3 -14 6 -6 3 7 2 16 -1 19 -3 4 -6 -2 -5 -13z"/>
<path d="M11090 11250 c0 -5 5 -10 10 -10 6 0 10 5 10 10 0 6 -4 10 -10 10 -5
0 -10 -4 -10 -10z"/>
<path d="M11181 11221 c-15 -10 -8 -41 9 -41 15 0 25 29 14 40 -5 5 -15 5 -23
1z"/>
<path d="M11276 11141 c-4 -7 -5 -15 -2 -18 9 -9 19 4 14 18 -4 11 -6 11 -12
0z"/>
<path d="M11300 11142 c0 -13 24 -39 43 -45 23 -8 22 -3 -7 27 -24 27 -36 32
-36 18z"/>
<path d="M11835 11109 c-4 -6 -5 -12 -2 -15 2 -3 7 2 10 11 7 17 1 20 -8 4z"/>
<path d="M11290 11060 c0 -5 5 -10 10 -10 6 0 10 5 10 10 0 6 -4 10 -10 10 -5
0 -10 -4 -10 -10z"/>
<path d="M11205 11050 c-3 -6 1 -7 9 -4 18 7 21 14 7 14 -6 0 -13 -4 -16 -10z"/>
<path d="M11364 11024 c-4 -14 -2 -30 3 -35 5 -5 9 4 10 26 1 41 -4 45 -13 9z"/>
<path d="M11482 11020 c0 -14 2 -19 5 -12 2 6 2 18 0 25 -3 6 -5 1 -5 -13z"/>
<path d="M11420 11000 c0 -5 5 -10 10 -10 6 0 10 5 10 10 0 6 -4 10 -10 10 -5
0 -10 -4 -10 -10z"/>
<path d="M11892 10941 c-11 -7 -11 -9 1 -14 16 -6 27 0 27 15 0 10 -11 10 -28
-1z"/>
<path d="M11390 10920 c0 -5 5 -10 11 -10 5 0 7 5 4 10 -3 6 -8 10 -11 10 -2
0 -4 -4 -4 -10z"/>
<path d="M11385 10890 c3 -5 8 -10 11 -10 2 0 4 5 4 10 0 6 -5 10 -11 10 -5 0
-7 -4 -4 -10z"/>
<path d="M11424 10874 c3 -9 6 -20 6 -25 0 -5 4 -9 9 -9 4 0 6 11 3 25 -2 14
-9 25 -14 25 -6 0 -7 -7 -4 -16z"/>
<path d="M11360 10871 c0 -5 7 -14 15 -21 16 -14 18 -10 9 14 -6 17 -24 22
-24 7z"/>
<path d="M11865 10869 c-9 -14 -2 -20 14 -10 8 6 9 11 3 15 -6 3 -14 1 -17 -5z"/>
<path d="M11691 10844 c0 -11 3 -14 6 -6 3 7 2 16 -1 19 -3 4 -6 -2 -5 -13z"/>
<path d="M11295 10740 c-19 -8 -19 -9 3 -9 12 -1 22 4 22 9 0 6 -1 10 -2 9 -2
0 -12 -4 -23 -9z"/>
<path d="M11640 10724 c0 -8 5 -12 10 -9 6 4 8 11 5 16 -9 14 -15 11 -15 -7z"/>
<path d="M11730 10731 c0 -6 5 -13 10 -16 6 -3 10 1 10 9 0 9 -4 16 -10 16 -5
0 -10 -4 -10 -9z"/>
<path d="M11496 10694 c-4 -10 -1 -14 6 -12 15 5 23 28 10 28 -5 0 -13 -7 -16
-16z"/>
<path d="M11690 10700 c0 -5 9 -10 20 -10 11 0 20 5 20 10 0 6 -9 10 -20 10
-11 0 -20 -4 -20 -10z"/>
<path d="M11640 10644 c0 -8 5 -12 10 -9 6 3 10 10 10 16 0 5 -4 9 -10 9 -5 0
-10 -7 -10 -16z"/>
<path d="M8095 10200 c-4 -7 -1260 -10 -4051 -10 l-4044 0 0 -130 0 -130 3966
0 c2641 0 3963 -3 3959 -10 -4 -7 -1337 -10 -3966 -10 l-3959 0 0 -79 0 -80
3917 -1 c2154 0 3918 -2 3920 -4 2 -2 -2 -15 -8 -30 l-12 -26 -346 -1 c-2800
-5 -3749 -6 -5458 -8 l-2013 -1 0 -55 0 -55 3875 0 c2131 0 3875 -3 3875 -6 0
-3 -7 -21 -16 -40 l-16 -34 -3859 0 -3859 0 0 -50 0 -50 3829 0 3830 0 -10
-32 c-5 -18 -17 -44 -28 -58 l-18 -25 -3802 -3 -3801 -2 0 -25 0 -25 3780 0
3780 0 0 -24 c0 -19 -12 -31 -57 -57 -100 -56 -122 -78 -207 -208 -46 -70 -94
-138 -107 -150 -13 -13 -63 -43 -111 -67 -150 -76 -193 -129 -207 -260 -7 -62
-17 -88 -59 -162 -67 -118 -222 -334 -357 -496 -83 -100 -188 -239 -340 -451
-22 -30 -60 -83 -85 -118 l-45 -62 -2993 -3 -2992 -2 0 -35 0 -35 2103 0
c1807 0 3837 -7 3843 -13 1 -1 -3 -24 -10 -52 l-13 -50 -2962 -3 -2961 -2 0
-50 0 -50 98 0 c53 0 1381 -1 2950 -2 1569 -1 2855 -4 2857 -8 2 -4 1 -19 -3
-34 l-7 -27 -1990 -4 c-1095 -2 -2421 -4 -2947 -4 l-958 -1 0 -65 0 -65 2940
0 c2553 0 2940 -2 2940 -14 0 -8 -5 -18 -12 -22 -6 -4 -1329 -7 -2940 -6
l-2928 1 0 -84 0 -85 878 -3 877 -2 -877 -3 -878 -2 0 -40 0 -40 2895 0 c1592
0 2895 -1 2895 -2 -1 -2 -13 -39 -28 -83 l-28 -80 -2867 -3 -2867 -2 0 -125 0
-125 2826 0 2826 0 -7 -27 c-4 -16 -11 -34 -17 -40 -8 -10 -578 -13 -2819 -13
l-2809 0 0 -1505 0 -1505 2767 -2 2768 -3 3 -37 3 -38 -2770 0 -2771 0 0 -125
0 -125 2800 0 2800 0 0 -22 c0 -13 7 -47 14 -75 l14 -53 -2814 0 -2814 0 0
-300 0 -300 2877 0 c1582 0 2874 -2 2872 -5 -3 -2 -1298 -5 -2877 -7 l-2872
-1 0 -94 0 -93 83 0 c45 0 1346 -1 2890 -2 1545 -1 2811 -6 2813 -10 6 -9 -1
-9 -3221 -14 -1342 -1 -2468 -3 -2502 -3 l-63 -1 0 -130 0 -130 2934 0 c2809
0 2934 -1 2938 -18 3 -10 1 -28 -3 -40 l-8 -22 -528 5 c-290 3 -564 5 -608 5
-44 0 -971 -2 -2060 -4 -1089 -2 -2134 -4 -2322 -5 l-343 -1 0 -50 0 -50 2944
0 c2662 0 2946 -2 2960 -16 17 -16 32 -61 24 -70 -3 -2 -1337 -4 -2966 -4
l-2962 0 0 -45 0 -45 1568 -2 c1940 -2 3924 -5 4178 -7 l192 -1 12 -29 c6 -16
10 -40 8 -53 l-3 -23 -565 -5 c-311 -3 -1651 -5 -2977 -3 l-2413 3 0 -30 0
-30 2984 0 2984 0 11 -29 c7 -15 11 -50 9 -77 l-3 -49 -2810 -1 c-3343 0
-3175 1 -3175 -19 0 -13 331 -15 2968 -15 1632 0 2981 0 2998 0 20 0 34 -6 38
-16 11 -29 25 -194 26 -309 1 -60 4 -136 7 -167 l6 -58 3906 0 3906 0 -2 232
c-2 128 0 252 3 276 l5 42 3070 0 c3062 0 3069 0 3069 20 0 20 -7 20 -3069 20
l-3069 0 -7 38 c-10 44 -7 82 7 99 7 9 700 11 3039 6 1666 -3 3045 -2 3064 1
31 6 35 11 35 36 l0 30 -3077 2 -3078 3 -3 53 -3 52 3080 0 3081 0 0 50 0 50
-3084 0 c-2803 0 -3084 1 -3090 16 -3 9 -6 27 -6 40 l0 24 3090 0 3090 0 0 65
0 65 -377 1 c-696 2 -4761 3 -5485 1 -298 0 -337 1 -343 15 -3 9 -1 21 5 27
12 12 4734 16 5385 5 198 -4 462 -4 588 -1 l227 5 0 549 0 548 -3330 0 c-2657
0 -3330 3 -3331 13 -1 6 -3 28 -5 47 -1 19 -5 47 -8 62 l-5 28 3339 0 3340 0
0 125 0 125 -3347 2 -3348 3 0 35 0 35 3348 3 3347 2 0 1510 0 1510 -3977 -1
c-3789 0 -3978 0 -3990 17 -7 10 -13 26 -13 36 0 17 147 18 3990 18 l3990 0 0
125 0 125 -4018 0 -4019 0 -21 79 c-12 43 -22 81 -22 85 0 3 1818 6 4040 6
l4040 0 0 130 0 130 -4082 2 c-3879 3 -4083 4 -4086 21 -3 16 196 17 4082 17
l4086 0 0 70 0 70 -4110 0 -4109 0 -16 30 -16 30 4126 0 4125 0 0 60 0 59
-4052 -2 c-2229 -1 -4097 -1 -4150 1 l-97 3 -10 30 c-6 16 -18 37 -27 47 -17
16 209 17 4159 20 l4177 2 0 45 0 45 -767 0 c-423 0 -2111 -1 -3753 -2 -1642
-2 -3124 -2 -3295 -1 -170 1 -373 3 -451 3 l-140 0 -23 41 c-22 39 -22 41 -5
60 14 16 15 23 6 45 -7 13 -12 36 -12 51 0 14 -16 51 -36 82 -68 106 -146 236
-176 290 -16 30 -46 80 -66 112 -20 32 -59 95 -87 141 -45 75 -185 228 -281
308 -16 14 -44 43 -62 65 -47 57 -21 8 50 -94 39 -57 58 -94 58 -114 0 -25
-33 19 -176 234 -204 304 -232 343 -370 499 -104 117 -122 136 -254 250 -94
81 -230 186 -167 128 10 -10 16 -21 13 -26 -2 -4 0 -14 5 -22 8 -13 10 -13 19
0 9 13 14 7 11 -12 0 -4 10 -10 24 -14 14 -3 22 -10 20 -15 -3 -4 -13 -6 -23
-3 -13 4 -13 2 3 -10 11 -8 26 -20 33 -26 7 -6 22 -9 35 -6 12 3 16 3 10 0
-26 -12 -10 -36 83 -126 138 -133 272 -289 405 -473 50 -69 269 -400 312 -471
3 -6 -3 -25 -14 -43 l-20 -33 -54 83 c-252 396 -379 562 -589 772 -490 491
-1358 1058 -2006 1310 -148 57 -157 60 -165 47z m109 -100 c282 -100 663 -295
1048 -538 98 -62 181 -112 186 -112 5 0 18 -11 31 -26 16 -18 28 -23 43 -18
12 3 18 2 15 -3 -6 -10 27 -43 42 -43 5 0 11 -3 13 -8 2 -4 35 -29 73 -56 39
-27 80 -60 93 -73 13 -13 27 -21 33 -18 5 4 12 -2 16 -11 8 -21 64 -73 78 -74
6 0 16 -9 23 -20 7 -11 16 -20 20 -20 23 0 316 -287 433 -425 137 -161 189
-236 412 -590 l76 -120 -22 -17 c-12 -10 -25 -18 -29 -18 -4 0 -38 47 -75 105
-257 399 -315 475 -498 664 -452 465 -1338 1053 -1990 1321 -71 30 -134 57
-139 61 -12 11 3 69 19 69 7 0 52 -14 99 -30z m-16 -156 c202 -74 622 -290
862 -442 119 -76 380 -250 465 -311 78 -56 136 -101 356 -270 25 -20 68 -54
94 -76 49 -41 247 -241 304 -306 70 -82 490 -738 446 -697 -4 4 -15 -2 -24
-14 l-17 -20 -25 30 c-13 16 -51 73 -84 127 -33 53 -114 178 -180 278 -101
153 -140 201 -245 308 -320 323 -964 784 -1530 1094 -69 37 -174 98 -235 135
-60 37 -161 93 -222 124 -62 31 -113 61 -113 66 0 19 52 10 148 -26z m932
-677 c52 -36 147 -101 210 -144 63 -42 184 -128 268 -190 84 -62 155 -113 159
-113 3 0 11 -6 17 -13 6 -8 47 -43 91 -78 113 -91 263 -237 308 -300 71 -100
233 -354 276 -431 36 -66 40 -81 31 -99 -7 -12 -9 -36 -5 -55 7 -41 -11 -47
-21 -7 -9 33 -115 211 -229 383 -78 118 -166 214 -308 338 -88 77 -340 270
-500 384 -94 67 -194 138 -222 159 -63 48 -315 288 -315 300 0 15 133 -59 240
-134z m430 -487 c0 -4 20 -21 45 -39 24 -17 50 -37 57 -44 7 -7 74 -60 148
-118 157 -123 268 -238 325 -333 124 -208 225 -361 293 -444 42 -52 82 -101
87 -110 6 -8 25 -29 43 -45 22 -20 32 -38 32 -59 l0 -29 -57 48 c-152 127
-265 268 -385 478 -74 130 -158 222 -328 361 -78 62 -155 138 -233 228 -141
162 -151 180 -79 141 29 -16 52 -31 52 -35z m1022 -868 c5 -24 -2 -52 -14 -52
-5 0 -7 9 -3 20 3 10 1 28 -5 39 -8 17 -8 19 4 15 8 -3 16 -13 18 -22z m18
-128 c12 -19 20 -38 16 -41 -3 -3 -8 2 -12 11 -3 9 -12 16 -20 16 -15 0 -37
34 -27 44 12 12 22 6 43 -30z m-52 -2 c4 -25 -13 -30 -22 -6 -9 25 -7 36 7 32
6 -3 13 -14 15 -26z m12 -77 c0 -5 -5 -3 -10 5 -5 8 -10 20 -10 25 0 6 5 3 10
-5 5 -8 10 -19 10 -25z m38 0 c-3 -3 -9 2 -12 12 -6 14 -5 15 5 6 7 -7 10 -15
7 -18z m-68 -139 c0 4 12 -5 26 -20 15 -14 30 -26 35 -26 11 0 41 -58 37 -70
-6 -16 -123 73 -163 123 -63 79 -62 84 4 33 33 -26 61 -44 61 -40z m232 -70
c9 -18 8 -19 -3 -6 -8 8 -21 20 -29 27 -13 11 -13 12 3 7 10 -4 22 -16 29 -28z
m44 -67 c8 -17 14 -34 12 -38 -2 -4 -13 12 -25 36 -13 24 -18 41 -13 38 6 -4
17 -20 26 -36z m-148 -33 c13 -12 33 -38 43 -58 18 -34 29 -43 52 -39 4 0 7
-10 7 -23 0 -14 5 -28 11 -31 6 -4 8 -13 6 -19 -3 -7 2 -13 10 -13 12 0 14 10
10 51 -3 28 -9 63 -13 79 -4 16 -2 27 4 27 5 0 12 -17 15 -37 11 -90 39 -189
63 -220 28 -37 84 -155 84 -175 0 -7 -6 -4 -12 7 -6 11 -15 24 -20 30 -40 48
-68 90 -74 108 -4 12 -14 27 -24 34 -21 15 -71 87 -74 106 -1 8 -16 27 -34 42
-18 15 -43 46 -57 69 -14 23 -36 53 -51 67 -14 13 -30 33 -36 43 -9 17 -6 17
28 -4 22 -13 50 -33 62 -44z m182 -109 c0 -10 21 -41 48 -70 26 -28 36 -45 23
-36 -31 20 -77 87 -85 124 -5 22 -4 26 4 15 5 -8 10 -23 10 -33z m171 -153
c19 -32 44 -75 57 -96 34 -58 19 -46 -25 20 -21 31 -65 95 -96 142 l-58 85 44
-47 c25 -26 60 -73 78 -104z m-110 1 c31 -36 52 -73 79 -139 11 -27 34 -66 50
-86 17 -21 30 -42 30 -47 0 -5 25 -35 55 -66 69 -71 73 -89 4 -22 -55 55 -135
169 -151 218 -6 18 -35 68 -63 112 -54 83 -79 129 -48 85 10 -13 30 -38 44
-55z m210 -162 c13 -16 12 -17 -3 -4 -17 13 -22 21 -14 21 2 0 10 -8 17 -17z
m-53 -20 c-6 -8 -5 -19 2 -34 16 -29 -3 -16 -29 20 l-20 28 28 -1 c21 -1 27
-4 19 -13z m92 -2 c0 -10 9 -40 21 -66 27 -60 17 -71 -12 -13 -23 45 -33 98
-18 98 5 0 9 -8 9 -19z m-120 -102 c15 -28 5 -23 -15 7 -9 15 -12 23 -6 20 6
-4 16 -16 21 -27z m162 -271 c11 -16 17 -28 14 -28 -8 0 -56 73 -56 85 0 5 6
1 12 -10 6 -11 20 -32 30 -47z m58 -93 c0 -11 -14 7 -31 40 -7 13 -3 12 10 -5
11 -14 21 -29 21 -35z m-7528 -42 c-353 -2 -931 -2 -1285 0 -353 1 -64 2 643
2 707 0 996 -1 642 -2z m1696 0 c-185 -2 -491 -2 -680 0 -189 1 -37 2 337 2
374 0 528 -1 343 -2z m11270 -4680 c-570 -2 -1506 -2 -2080 0 -574 1 -107 2
1037 2 1144 0 1613 -1 1043 -2z m2515 0 c-243 -2 -643 -2 -890 0 -246 1 -47 2
442 2 490 0 691 -1 448 -2z m-3793 -207 c8 -2 -379 -4 -860 -3 -481 0 -857 3
-835 6 42 6 1669 4 1695 -3z m548 -3 c-42 -2 -114 -2 -160 0 -46 1 -11 3 77 3
88 0 125 -2 83 -3z m1420 0 c-190 -2 -505 -2 -700 0 -194 1 -38 2 347 2 385 0
544 -1 353 -2z m1375 0 c-79 -2 -207 -2 -285 0 -79 1 -15 3 142 3 157 0 221
-2 143 -3z m425 0 c-42 -2 -114 -2 -160 0 -46 1 -11 3 77 3 88 0 125 -2 83 -3z
m-17418 -153 c10 -6 -40 -9 -150 -8 -138 1 -151 3 -80 8 139 10 214 10 230 0z
m-642 -7 c-119 -2 -317 -2 -440 0 -123 1 -25 2 217 2 242 0 342 -1 223 -2z
m1829 0 c-109 -2 -285 -2 -390 0 -106 1 -16 2 198 2 215 0 301 -1 192 -2z
m-2887 -13 c0 -5 -7 -10 -15 -10 -8 0 -15 5 -15 10 0 6 7 10 15 10 8 0 15 -4
15 -10z"/>
<path d="M10650 7345 c7 -8 17 -15 22 -15 6 0 5 7 -2 15 -7 8 -17 15 -22 15
-6 0 -5 -7 2 -15z"/>
<path d="M12391 9344 c0 -11 3 -14 6 -6 3 7 2 16 -1 19 -3 4 -6 -2 -5 -13z"/>
<path d="M16005 7549 c-4 -6 -5 -13 -2 -16 7 -7 27 6 27 18 0 12 -17 12 -25
-2z"/>
<path d="M16343 7553 c-40 -2 -73 -8 -73 -13 0 -6 59 -10 145 -10 83 0 145 4
145 9 0 19 -49 22 -217 14z"/>
<path d="M16596 7553 c-3 -3 -6 -10 -6 -15 0 -13 503 -5 507 8 4 12 -489 19
-501 7z"/>
<path d="M17203 7546 c6 -17 509 -15 514 1 4 10 -55 12 -257 11 -184 -1 -260
-4 -257 -12z"/>
<path d="M17760 7544 c0 -11 25 -14 130 -14 80 0 130 4 130 10 0 6 -32 11 -72
12 -40 0 -99 2 -130 4 -44 2 -58 -1 -58 -12z"/>
<path d="M19120 7543 c0 -9 19 -13 60 -13 47 0 60 3 60 15 0 12 -12 14 -60 12
-40 -1 -60 -6 -60 -14z"/>
<path d="M15400 7541 c0 -4 36 -9 80 -10 51 -1 80 2 80 8 0 7 -31 11 -80 11
-44 0 -80 -4 -80 -9z"/>
<path d="M18930 7540 c0 -6 33 -10 79 -10 44 0 83 5 86 10 4 6 -25 10 -79 10
-51 0 -86 -4 -86 -10z"/>
<path d="M17400 7370 c0 -5 13 -10 29 -10 17 0 33 5 36 10 4 6 -8 10 -29 10
-20 0 -36 -4 -36 -10z"/>
<path d="M17580 7365 c0 -11 11 -15 40 -15 29 0 40 4 40 15 0 11 -11 15 -40
15 -29 0 -40 -4 -40 -15z"/>
<path d="M18510 7370 c0 -5 16 -10 36 -10 21 0 33 4 29 10 -3 6 -19 10 -36 10
-16 0 -29 -4 -29 -10z"/>
<path d="M19810 7364 c0 -10 7 -14 22 -12 32 5 35 28 4 28 -17 0 -26 -5 -26
-16z"/>
<path d="M17090 7330 c0 -6 33 -10 80 -10 47 0 80 4 80 10 0 6 -33 10 -80 10
-47 0 -80 -4 -80 -10z"/>
<path d="M17325 7330 c-26 -7 -22 -8 23 -9 29 0 52 3 52 9 0 11 -31 11 -75 0z"/>
<path d="M18633 7323 c9 -2 23 -2 30 0 6 3 -1 5 -18 5 -16 0 -22 -2 -12 -5z"/>
<path d="M18733 7323 c9 -2 25 -2 35 0 9 3 1 5 -18 5 -19 0 -27 -2 -17 -5z"/>
<path d="M16329 7039 c-8 -5 111 -9 299 -9 179 0 312 4 312 9 0 12 -592 12
-611 0z"/>
<path d="M17090 7040 c0 -5 14 -10 30 -10 17 0 30 5 30 10 0 6 -13 10 -30 10
-16 0 -30 -4 -30 -10z"/>
<path d="M17247 7038 c-6 -4 26 -7 73 -7 47 0 81 2 75 4 -22 8 -136 11 -148 3z"/>
<path d="M18900 7040 c-12 -8 -10 -10 8 -10 13 0 20 4 17 10 -7 12 -6 12 -25
0z"/>
<path d="M19755 7030 c8 -13 123 -11 131 2 3 4 -27 8 -66 8 -47 0 -69 -4 -65
-10z"/>
<path d="M19968 7033 c6 -2 18 -2 25 0 6 3 1 5 -13 5 -14 0 -19 -2 -12 -5z"/>
</g>
</svg>
